<svg width="21" height="19" viewBox="0 0 21 19" fill="none" xmlns="http://www.w3.org/2000/svg">
<path d="M19.5749 10.6967C18.2743 12.7371 14.3102 16.8298 10.5 18.5C6.68875 16.8298 2.72571 12.7382 1.42508 10.6967C0.448789 9.16592 -0.0884991 7.53711 0.0119694 5.72538C0.0993332 4.1521 0.896528 2.62999 2.14474 1.66207C3.39186 0.694144 5.06706 0.295652 6.61777 0.600509C8.27222 0.924965 9.74212 2.05838 10.5 3.55763C11.2568 2.05838 12.7267 0.924965 14.3822 0.600509C15.9329 0.295652 17.6092 0.694144 18.8564 1.66207C20.1035 2.62999 20.9007 4.1521 20.988 5.72538C21.0885 7.53711 20.5512 9.16592 19.576 10.6967H19.5749Z" fill="white"/>
</svg>
