<svg width="42" height="41" viewBox="0 0 42 41" fill="none" xmlns="http://www.w3.org/2000/svg">
<path d="M21.016 30.1002C26.318 30.1002 30.616 25.8021 30.616 20.5002C30.616 15.1982 26.318 10.9001 21.016 10.9001C15.7141 10.9001 11.416 15.1982 11.416 20.5002C11.416 25.8021 15.7141 30.1002 21.016 30.1002Z" stroke="black" stroke-miterlimit="10"/>
<path d="M21.0157 40.5001C32.0614 40.5001 41.0157 31.5457 41.0157 20.5C41.0157 9.45432 32.0614 0.5 21.0157 0.5C9.96994 0.5 1.01562 9.45432 1.01562 20.5C1.01562 31.5457 9.96994 40.5001 21.0157 40.5001Z" stroke="black" stroke-miterlimit="10"/>
<path d="M9.81543 37.237C12.3188 33.8829 16.3915 31.7 20.9925 31.7C25.5934 31.7 29.7159 33.9088 32.2155 37.3" stroke="black" stroke-miterlimit="10"/>
</svg>
