<svg width="50" height="50" viewBox="0 0 50 50" fill="none" xmlns="http://www.w3.org/2000/svg">
<g clip-path="url(#clip0_141_1523)">
<path d="M37.375 37.3757C33.8137 40.0903 29.4773 41.5942 25 41.6674C10.4166 41.6674 2.08331 25.0007 2.08331 25.0007C4.67475 20.1713 8.26901 15.952 12.625 12.6257M20.625 8.83404C22.059 8.49837 23.5272 8.33058 25 8.33404C39.5833 8.33404 47.9166 25.0007 47.9166 25.0007C46.652 27.3666 45.1438 29.5939 43.4166 31.6465M29.4166 29.4174C28.8445 30.0314 28.1545 30.5239 27.3878 30.8655C26.6211 31.2071 25.7935 31.3908 24.9543 31.4056C24.1151 31.4204 23.2816 31.2661 22.5033 30.9517C21.7251 30.6374 21.0182 30.1695 20.4247 29.576C19.8312 28.9825 19.3633 28.2756 19.049 27.4973C18.7346 26.7191 18.5802 25.8855 18.5951 25.0463C18.6099 24.2072 18.7935 23.3795 19.1351 22.6129C19.4767 21.8462 19.9693 21.1562 20.5833 20.584" stroke="#9E9E9E" stroke-width="3" stroke-linecap="round" stroke-linejoin="round"/>
<path d="M2.08331 2.08398L47.9166 47.9173" stroke="#9E9E9E" stroke-width="3" stroke-linecap="round" stroke-linejoin="round"/>
</g>
<defs>
<clipPath id="clip0_141_1523">
<rect width="50" height="50" fill="white"/>
</clipPath>
</defs>
</svg>
