<?xml version="1.0" encoding="UTF-8"?>
<svg id="Layer_1" data-name="Layer 1" xmlns="http://www.w3.org/2000/svg" version="1.1" xmlns:xlink="http://www.w3.org/1999/xlink" viewBox="0 0 817 817">
  <defs>
    <style>
      .cls-1 {
        fill: none;
      }

      .cls-1, .cls-2 {
        stroke: #957cff;
      }

      .cls-1, .cls-2, .cls-3 {
        stroke-miterlimit: 10;
        stroke-width: 4px;
      }

      .cls-4 {
        fill: url(#linear-gradient-6);
      }

      .cls-4, .cls-5, .cls-6, .cls-7, .cls-8, .cls-9, .cls-10 {
        stroke-width: 0px;
      }

      .cls-2, .cls-9 {
        fill: #fff;
      }

      .cls-5 {
        fill: url(#linear-gradient-5);
      }

      .cls-3 {
        fill: url(#linear-gradient);
        stroke: #fff;
      }

      .cls-6 {
        fill: url(#linear-gradient-2);
      }

      .cls-7 {
        fill: url(#linear-gradient-7);
      }

      .cls-8 {
        fill: url(#linear-gradient-3);
      }

      .cls-10 {
        fill: url(#linear-gradient-4);
      }
    </style>
    <linearGradient id="linear-gradient" x1="159.9" y1="438.75" x2="657.76" y2="438.75" gradientUnits="userSpaceOnUse">
      <stop offset="0" stop-color="#4e37d3"/>
      <stop offset=".51" stop-color="#613df4"/>
      <stop offset="1" stop-color="#8e7bff"/>
    </linearGradient>
    <linearGradient id="linear-gradient-2" x1="572.45" y1="622.47" x2="746.06" y2="527.77" xlink:href="#linear-gradient"/>
    <linearGradient id="linear-gradient-3" x1="324.82" y1="220.61" x2="441.44" y2="144.78" xlink:href="#linear-gradient"/>
    <linearGradient id="linear-gradient-4" x1="323.83" y1="219.08" x2="440.45" y2="143.25" xlink:href="#linear-gradient"/>
    <linearGradient id="linear-gradient-5" x1="310.12" y1="198" x2="426.74" y2="122.17" xlink:href="#linear-gradient"/>
    <linearGradient id="linear-gradient-6" x1="318.41" y1="210.75" x2="435.03" y2="134.92" xlink:href="#linear-gradient"/>
    <linearGradient id="linear-gradient-7" x1="78.71" y1="575.2" x2="249.23" y2="575.2" xlink:href="#linear-gradient"/>
  </defs>
  <g>
    <circle class="cls-1" cx="408.83" cy="438.75" r="375.71"/>
    <g>
      <circle class="cls-3" cx="408.83" cy="438.75" r="248.93"/>
      <g>
        <path class="cls-9" d="M408.68,403.82c-.65-1.07-1.29-2.18-1.99-3.24-8.04-12.36-19.04-18.67-34.11-16.77-18.72,2.35-31.31,18.9-28.62,37.58,1.26,8.75,4.95,16.47,9.95,23.58,13.56,19.25,30.77,34.63,50.64,47.11,4.23,2.66,4.31,2.61,8.58-.03,16.51-10.2,30.91-22.85,43.43-37.65,6.16-7.27,11.61-15.04,14.86-24.1,3.29-9.16,3.84-18.41-.29-27.44-5.09-11.12-14.07-17.29-26.04-18.99-12.43-1.77-22.78,2.26-30.72,12.06-2,2.47-3.74,5.17-5.7,7.9Z"/>
        <path class="cls-9" d="M408.68,403.82c1.96-2.73,3.69-5.42,5.7-7.9,7.94-9.81,18.28-13.83,30.72-12.06,11.97,1.7,20.95,7.87,26.04,18.99,4.13,9.03,3.58,18.27.29,27.44-3.26,9.07-8.7,16.83-14.86,24.1-12.52,14.79-26.93,27.44-43.43,37.65-4.27,2.64-4.36,2.69-8.58.03-19.87-12.49-37.08-27.86-50.64-47.11-5.01-7.11-8.69-14.82-9.95-23.58-2.69-18.68,9.91-35.23,28.62-37.58,15.07-1.9,26.07,4.41,34.11,16.77.7,1.07,1.33,2.17,1.99,3.24Z"/>
      </g>
    </g>
  </g>
  <g>
    <circle class="cls-2" cx="654.03" cy="575.2" r="153.27"/>
    <path class="cls-6" d="M757.67,553c-2.27,1.47-4.98,1.5-7.47,2.26-2.02.61-2.05.53-.94,2.25,2.1,3.24,2.73,6.9,2.91,10.63.2,4.03-.31,8.03-1.38,11.93-1.06,3.89-2.85,7.38-6.38,10.06,1.22.42,2.18.71,3.12,1.07,1.81.71,2.21,2.32.96,3.79-.69.8-1.55,1.42-2.56,1.71-4.87,1.39-6.4,5.21-7.16,9.63-.51,2.97-.32,5.94-.06,8.92.09,1.02.66,1.33,1.46,1.57,2.62.8,5.25,1.6,7.77,2.67,1.24.53,2.47,1.08,3.46,2.01.95.9.83,1.74-.39,2.26-.66.29-1.39.44-2.1.61-32.5,7.87-65,15.74-97.49,23.64-1.78.43-3.39.41-5.15-.17-21.83-7.14-43.68-14.23-65.53-21.32-3.48-1.13-5.87-3.57-7.34-6.73-3.6-7.75-4.23-15.82-1.84-24.04.63-2.18,1.91-4.06,3.56-5.84-1.04-.66-2.16-.65-3.16-1.01-.63-.23-1.35-.4-1.54-1.15-.21-.87.48-1.36,1.06-1.76,2.12-1.49,4.59-2.23,6.99-3.11.86-.31,1.73-.63,2.63-.78,2-.32,2.7-1.5,2.71-3.42.02-3.23.17-6.46-.69-9.63-.93-3.41-2.56-6.17-6.22-7.27-.99-.3-1.92-.81-2.69-1.53-1.66-1.55-1.27-3.51.87-4.23,1.91-.64,3.84-1.18,5.77-1.77.76-.23,1.22-.53.47-1.37-3.23-3.62-4.37-8.1-5.04-12.72-.76-5.24-.76-10.47,1.33-15.46,1.96-4.7,5.3-7.79,10.54-8.51,11.03-1.52,22.06-3.09,33.1-4.64,12.84-1.79,25.68-3.58,38.53-5.37,9.77-1.36,19.53-2.72,29.3-4.09.87-.12,1.69.06,2.51.31,20.18,6.09,40.36,12.17,60.54,18.25,1.24.37,2.55.65,2.7,2.28.14,1.54-.94,2.28-2.03,2.99-.25.17-.51.36-.8.44-5.15,1.41-6.91,5.34-7.56,10.12-.36,2.67-.24,5.35-.09,8.03.07,1.26.7,1.9,1.93,2.27,2.56.78,5.08,1.71,7.59,2.65,1.43.54,2.77,1.28,3.8,2.46v1.1ZM655.08,548.89c.17-1.49.25-2.78-1.81-3.44-20.87-6.72-41.7-13.55-62.55-20.33-4.56-1.48-7.13.04-8.05,4.79-.91,4.68-.62,9.36.73,13.91.83,2.81,2.3,5.21,5.49,6.08,8.17,2.22,16.31,4.52,24.46,6.8,13.08,3.66,26.15,7.33,39.22,11,.98.27,1.87.69,1.91-1.03.14-5.9.4-11.81.61-17.78ZM745.87,570.18c.07-2.15-.14-4.27-.8-6.31-1.27-3.9-3.54-5.06-7.46-3.78-20.9,6.82-41.8,13.67-62.71,20.44-1.58.51-2.07,1.29-1.99,2.89.29,5.59.48,11.19.67,16.79.11,3.07.08,3.08,3.05,2.25,20.47-5.73,40.91-11.54,61.41-17.13,3.75-1.02,5.69-3.26,6.72-6.67.83-2.76,1.08-5.61,1.12-8.48ZM648.9,621.75c.15,0,.29,0,.44,0,0-1.16-.08-2.32.02-3.47.13-1.45-.38-2.18-1.81-2.65-21.27-6.89-42.51-13.83-63.77-20.75-.75-.24-1.48-.4-2.32-.24-2.74.52-3.75,2.59-4.31,4.89-.91,3.72-.72,7.51-.21,11.26.74,5.44,3.33,8.68,9.19,10.2,20.21,5.25,40.26,11.13,60.38,16.76,2.07.58,2.37.39,2.38-1.76.03-4.75,0-9.5,0-14.25ZM658.61,562.62c0,1.59.09,2.7-.02,3.78-.16,1.56.51,1.71,1.82,1.38,26.23-6.55,52.46-13.09,78.71-19.59,1.25-.31,1.48-.83,1.34-2.03-.56-4.81-.65-9.6.86-14.29q.85-2.64-1.82-2.09c-26,5.35-51.99,10.71-78.01,16-1.8.37-2.46,1.17-2.46,2.9.02,4.81-.11,9.62-.43,13.93ZM669.4,597c-.24-3.41-.44-8.22-.35-13.03.03-1.94-.71-2.72-2.65-3.11-21.24-4.3-42.46-8.69-63.68-13.05-5.13-1.05-10.25-2.12-15.38-3.16-.57-.12-1.63-.57-1.13.75,1.87,4.92,2.14,9.99,1.43,15.11-.29,2.11.56,2.64,2.38,3.09,24.89,6.13,49.76,12.33,74.63,18.52,4.82,1.2,4.81,1.22,4.75-5.12ZM652.88,635.84c-.11,2.57-.11,2.58,1.82,2.1,26.05-6.48,52.09-12.98,78.14-19.42,1.62-.4,2.07-.97,1.9-2.73-.49-4.98-.6-9.98,1.24-14.79.15-.39.56-.81.3-1.19-.34-.5-.88-.14-1.34-.05-11.86,2.43-23.73,4.85-35.59,7.28-5.01,1.03-10.02,2.03-15.02,3.1-4.98,1.07-9.59,3.28-14.98,3.28-4.65,0-9.3,1.71-13.95,2.66-1.04.21-1.92.38-1.95,1.86-.12,5.96-.38,11.92-.59,17.88Z"/>
  </g>
  <g>
    <circle class="cls-2" cx="408.83" cy="156.81" r="153.27"/>
    <g>
      <path class="cls-8" d="M408.81,254.69c-16.77,0-33.53,0-50.3,0-3.88,0-7.56-.53-10.24-3.84-1.95-2.41-2.97-5.11-2.32-8.19,2.29-10.93,4.6-21.86,7.04-32.77,1.03-4.59,3.87-7.81,8.35-9.37,9.06-3.16,18.12-6.29,27.22-9.32,1.74-.58,2.22-1.45,2.33-3.23.19-3.17-.68-5.18-3.47-7.24-9.63-7.12-14.5-16.88-14.33-29.01.04-2.91,0-2.91-2.89-3.6-6-1.44-9.23-7.45-7.07-13.23.37-.99.63-1.97.63-3.04-.02-6.99-.04-13.99.02-20.98.01-1.45-.44-2.26-1.83-2.79-4.09-1.55-8.14-3.19-12.17-4.88-1.6-.67-2.08-.24-2.07,1.43.04,9.02.03,18.04,0,27.06,0,1.13.36,1.93,1.27,2.67,2.42,1.97,3.56,8.11,2.13,10.9-1.32,2.59-4.42,3.81-7.58,2.99-2.82-.73-4.61-2.95-4.42-5.9.21-3.25.3-6.63,3.59-8.64.72-.44.68-1.21.68-1.94,0-9.8-.03-19.61.03-29.41,0-1.63-.96-2.06-2.16-2.57-4.29-1.78-6.16-5.81-4.63-9.84.9-2.37,2.7-3.75,4.98-4.67,13.99-5.61,27.97-11.25,41.95-16.88,7.08-2.85,14.17-5.68,21.23-8.59,2.69-1.11,5.27-1.14,7.96-.05,21.11,8.54,42.23,17.04,63.35,25.56,3.51,1.41,5.5,4.12,5.5,7.38,0,3.19-2.02,5.83-5.6,7.28-6.71,2.72-13.41,5.47-20.15,8.12-1.43.56-1.98,1.35-1.99,2.9-.04,6.53.26,13.07-.31,19.6-.09.98.04,1.91.51,2.84,3.43,6.69-.04,13.72-7.47,14.9-1.73.27-2.11.96-2.07,2.53.39,13.55-5.32,23.94-16.4,31.5-.9.61-1.34,1.33-1.31,2.43.16,6.53-1.07,5.15,5.07,7.31,7.69,2.71,15.41,5.34,23.15,7.91,5.53,1.83,8.78,5.48,9.95,11.23,2.1,10.31,4.46,20.56,6.58,30.86,1.29,6.24-2.77,11.63-9.12,12.35-1.42.16-2.86.26-4.29.26-16.44.02-32.88.01-49.32.01ZM377.18,141.85c0,3.69-.04,6.9,0,10.1.13,8.89,3.05,16.68,9.6,22.81,10,9.35,21.59,11.38,34.22,6.5,11.6-4.48,19.28-16.06,19.42-28.58.07-6.86.02-13.72.01-20.58,0-2.66-.59-3.21-3.21-3.24-4.49-.05-8.98.18-13.47-.33-10.91-1.26-20.85-4.6-28.65-12.8-.51-.54-1.04-.93-1.87-.84-3.24.34-6.47.67-9.72.91-1.34.1-2.15.71-2.73,1.86-1.68,3.35-2.84,6.85-3.29,10.6-.56,4.69-.13,9.4-.32,13.6ZM449.51,105.7c0-1.89-.04-3.79.01-5.68.06-2-.91-2.98-2.82-3.31-9.84-1.71-19.75-2.72-29.71-3.07-15.4-.54-30.73.44-45.94,3.07-2.26.39-2.92,1.09-2.94,3.37-.03,3.66-.02,7.32,0,10.97,0,2.43.22,2.59,2.62,2.18,11.9-2.04,23.91-3.09,35.97-3.21,13.57-.14,27.07.94,40.45,3.28,1.68.29,2.48-.08,2.39-1.92-.09-1.89-.02-3.79-.02-5.68ZM422.45,193.04c0-2.17-.05-4,.02-5.83.05-1.39-.4-1.72-1.72-1.25-7.98,2.82-15.97,2.81-23.95-.03-1.21-.43-1.66-.16-1.64,1.16.05,3.66-.08,7.32.06,10.97.24,6.25,5.43,11.93,11.39,12.64,7.16.85,13.08-2.8,15.17-9.26.93-2.88.57-5.82.67-8.4ZM373.08,138.44c0-1.3-.04-2.61.01-3.91.07-1.54-.69-1.95-2.07-1.69-2.46.47-4.49,3.08-4.41,5.73.08,2.66,2.24,5.11,4.75,5.43,1.15.15,1.74-.25,1.72-1.46-.02-1.37,0-2.74,0-4.1ZM444.86,138.43c0,1.37,0,2.74,0,4.12,0,1.05.45,1.56,1.56,1.47,2.39-.2,4.64-2.8,4.68-5.46.05-3-1.9-5.44-4.52-5.74-1.17-.14-1.72.32-1.71,1.5.01,1.37,0,2.74,0,4.12ZM343.37,141.76c-.09,1.56.49,2.38,2.14,2.32,1.62-.05,2.19-.86,1.91-2.41-.17-.89-.26-1.8-.42-2.69-.15-.84-.55-1.46-1.52-1.47-.95-.01-1.42.53-1.59,1.39-.19.95-.34,1.91-.52,2.87Z"/>
      <path class="cls-10" d="M408.79,158.62c2.67,0,5.34-.06,8.01.02,3.27.1,4.56,1.88,3.8,5.04-1.35,5.6-6.11,9.21-12.06,9.15-5.58-.05-10.3-3.85-11.55-9.31-.68-2.96.58-4.74,3.6-4.86,2.73-.11,5.47-.02,8.2-.02,0,0,0,0,0,0ZM408.87,162.99c-2.02,0-4.04,0-6.06,0-1.25,0-1.5.6-.89,1.62,1.51,2.56,3.81,4,6.73,4.05,3,.06,5.38-1.35,6.98-3.95.66-1.07.5-1.73-.9-1.73-1.95,0-3.91,0-5.86,0Z"/>
      <path class="cls-5" d="M392.67,142.74c.05-.78.01-1.57.17-2.33.2-.98.84-1.65,1.87-1.7,1.01-.05,1.81.48,2.08,1.45.48,1.78.45,3.62.04,5.41-.23.98-.98,1.57-2.02,1.51-1.1-.06-1.84-.71-2-1.8-.12-.83-.02-1.69-.02-2.53-.04,0-.08,0-.11,0Z"/>
      <path class="cls-4" d="M424.94,142.97c-.04.78,0,1.57-.13,2.34-.19,1.09-.93,1.74-2.03,1.78-1.03.04-1.77-.56-2-1.54-.4-1.73-.4-3.5,0-5.23.24-1.07,1.05-1.68,2.16-1.61,1.12.08,1.75.85,1.9,1.92.1.77.02,1.56.02,2.34.03,0,.06,0,.09,0Z"/>
    </g>
  </g>
  <g>
    <circle class="cls-2" cx="163.97" cy="575.2" r="153.27"/>
    <path class="cls-7" d="M165.67,488.25c3.01,1.22,4.21,3.52,4.18,6.68-.04,4.41,0,4.41,4.45,4.44,4.14.02,6.7,2.2,6.76,5.74.05,3.26-2.21,5.75-5.47,5.94-1.41.08-2.83.07-4.24.02-1.06-.04-1.54.32-1.53,1.45.04,3.79.05,7.58,0,11.36-.02,1.2.78,1.67,1.54,2.24,12.3,9.23,24.61,18.45,36.91,27.68,1.4,1.05,2.82,2.08,4.2,3.16,2.83,2.21,3.47,5.54,1.61,8.23-1.92,2.77-5.27,3.27-8.41,1.28-.55-.35-.98-.93-1.86-1.04,0,4.95,0,9.85,0,14.75,0,.93.83,1.14,1.47,1.46,5.96,2.99,11.93,5.97,17.9,8.96,7.18,3.59,14.33,7.25,21.55,10.74,3.14,1.52,4.49,3.84,4.49,7.26-.04,15.49-.08,30.99.02,46.48.02,3.85-2.14,7.28-7.11,7.06-4.68-.21-9.39-.1-14.08-.01-1.6.03-2.04-.56-2.04-2.06.05-8.42.03-16.85.01-25.27,0-.9,0-1.83-.21-2.69-.61-2.43-3.22-4.18-5.67-3.91-2.69.3-4.8,2.34-4.85,5.03-.1,5.6-.06,11.19-.06,16.79,0,3.39-.05,6.79.02,10.18.03,1.48-.52,1.94-1.99,1.93-12.04-.05-24.09-.06-36.13,0-1.72,0-2.06-.66-2.06-2.2.04-11.82.04-23.63.01-35.45-.01-4.94-2.76-8.97-7.07-10.59-7.36-2.77-15.05,2.4-15.12,10.3-.09,10.74-.03,21.49-.03,32.23,0,1.36-.04,2.72,0,4.07.04,1.13-.37,1.63-1.57,1.62-12.33-.03-24.65-.03-36.98,0-1.68,0-1.59-1.03-1.59-2.13,0-8.59-.02-17.19,0-25.78,0-2.34-.73-4.22-2.88-5.35-3.54-1.87-7.76.45-7.88,4.46-.13,4.35-.05,8.71-.06,13.06,0,4.52-.07,9.05.03,13.57.04,1.73-.56,2.23-2.26,2.2-4.92-.1-9.84-.02-14.76-.04-3.57-.02-5.95-2.3-6.17-5.86-.03-.51-.02-1.02-.02-1.53,0-15.21.05-30.42-.04-45.63-.02-3.77,1.37-6.22,4.83-7.92,13-6.36,25.9-12.92,38.87-19.35,1.29-.64,1.82-1.39,1.78-2.85-.1-4.01-.03-8.03-.04-12.04,0-.49-.06-.97-.1-1.65-.91.61-1.63,1.13-2.39,1.58-2.61,1.56-5.77.97-7.6-1.38-1.82-2.34-1.62-5.6.52-7.72.6-.59,1.29-1.09,1.97-1.6,13.25-9.94,26.49-19.9,39.78-29.79,1.33-.99,1.88-2.02,1.81-3.66-.13-3.05-.03-6.11-.04-9.16q0-2.45-2.54-2.46c-.96,0-1.92.02-2.88-.01-3.36-.11-5.75-2.44-5.8-5.63-.06-3.35,2.17-5.81,5.57-6.04,1.41-.1,2.83-.07,4.24-.03,1,.02,1.46-.37,1.42-1.39-.04-1.02.02-2.04,0-3.05-.1-3.16,1.16-5.46,4.17-6.68h3.39ZM164.04,556.5c-9.29-.02-16.95,7.58-16.91,16.78.04,9.06,7.63,16.64,16.69,16.69,9.27.05,16.98-7.53,17-16.72.02-9.12-7.6-16.73-16.77-16.75Z"/>
  </g>
</svg>