<?xml version="1.0" encoding="UTF-8"?>
<svg id="Layer_1" data-name="Layer 1" xmlns="http://www.w3.org/2000/svg" version="1.1" xmlns:xlink="http://www.w3.org/1999/xlink" viewBox="0 0 817 817">
  <defs>
    <style>
      .cls-1 {
        fill: url(#linear-gradient-12);
      }

      .cls-1, .cls-2, .cls-3, .cls-4, .cls-5, .cls-6, .cls-7, .cls-8, .cls-9, .cls-10, .cls-11, .cls-12, .cls-13, .cls-14, .cls-15, .cls-16, .cls-17, .cls-18, .cls-19, .cls-20, .cls-21 {
        stroke-width: 0px;
      }

      .cls-22 {
        fill: none;
      }

      .cls-22, .cls-23 {
        stroke: #957cff;
      }

      .cls-22, .cls-23, .cls-24 {
        stroke-miterlimit: 10;
        stroke-width: 4px;
      }

      .cls-2 {
        fill: url(#linear-gradient-17);
      }

      .cls-3 {
        fill: url(#linear-gradient-19);
      }

      .cls-4 {
        fill: url(#linear-gradient-21);
      }

      .cls-5 {
        fill: url(#linear-gradient-6);
      }

      .cls-6 {
        fill: url(#linear-gradient-15);
      }

      .cls-23, .cls-19 {
        fill: #fff;
      }

      .cls-7 {
        fill: url(#linear-gradient-11);
      }

      .cls-8 {
        fill: url(#linear-gradient-5);
      }

      .cls-9 {
        fill: url(#linear-gradient-13);
      }

      .cls-10 {
        fill: url(#linear-gradient-16);
      }

      .cls-11 {
        fill: url(#linear-gradient-20);
      }

      .cls-24 {
        fill: url(#linear-gradient);
        stroke: #fff;
      }

      .cls-12 {
        fill: url(#linear-gradient-14);
      }

      .cls-13 {
        fill: url(#linear-gradient-2);
      }

      .cls-14 {
        fill: url(#linear-gradient-7);
      }

      .cls-15 {
        fill: url(#linear-gradient-3);
      }

      .cls-16 {
        fill: url(#linear-gradient-9);
      }

      .cls-17 {
        fill: url(#linear-gradient-8);
      }

      .cls-18 {
        fill: url(#linear-gradient-18);
      }

      .cls-20 {
        fill: url(#linear-gradient-10);
      }

      .cls-21 {
        fill: url(#linear-gradient-4);
      }
    </style>
    <linearGradient id="linear-gradient" x1="159.9" y1="438.75" x2="657.76" y2="438.75" gradientUnits="userSpaceOnUse">
      <stop offset="0" stop-color="#4e37d3"/>
      <stop offset=".51" stop-color="#613df4"/>
      <stop offset="1" stop-color="#8e7bff"/>
    </linearGradient>
    <linearGradient id="linear-gradient-2" x1="70.71" y1="646.42" x2="117.53" y2="646.42" xlink:href="#linear-gradient"/>
    <linearGradient id="linear-gradient-3" x1="121.81" y1="574.81" x2="209.06" y2="574.81" xlink:href="#linear-gradient"/>
    <linearGradient id="linear-gradient-4" x1="112.69" y1="591.94" x2="183.53" y2="591.94" xlink:href="#linear-gradient"/>
    <linearGradient id="linear-gradient-5" x1="100.47" y1="609.08" x2="162.17" y2="609.08" xlink:href="#linear-gradient"/>
    <linearGradient id="linear-gradient-6" x1="92.49" y1="626.31" x2="135.48" y2="626.31" xlink:href="#linear-gradient"/>
    <linearGradient id="linear-gradient-7" x1="218.87" y1="604.09" x2="257.24" y2="604.09" xlink:href="#linear-gradient"/>
    <linearGradient id="linear-gradient-8" x1="76.49" y1="510.71" x2="115.03" y2="510.71" xlink:href="#linear-gradient"/>
    <linearGradient id="linear-gradient-9" x1="216.31" y1="520.3" x2="254.92" y2="520.3" xlink:href="#linear-gradient"/>
    <linearGradient id="linear-gradient-10" x1="177.37" y1="503.26" x2="196.7" y2="503.26" xlink:href="#linear-gradient"/>
    <linearGradient id="linear-gradient-11" x1="230.02" y1="559.74" x2="249.86" y2="559.74" xlink:href="#linear-gradient"/>
    <linearGradient id="linear-gradient-12" x1="143.4" y1="508.67" x2="163.24" y2="508.67" xlink:href="#linear-gradient"/>
    <linearGradient id="linear-gradient-13" x1="216.3" y1="640.45" x2="236.05" y2="640.45" xlink:href="#linear-gradient"/>
    <linearGradient id="linear-gradient-14" x1="82.68" y1="542.09" x2="98.95" y2="542.09" xlink:href="#linear-gradient"/>
    <linearGradient id="linear-gradient-15" x1="185.45" y1="549.1" x2="201.69" y2="549.1" xlink:href="#linear-gradient"/>
    <linearGradient id="linear-gradient-16" x1="164.39" y1="657.85" x2="180.6" y2="657.85" xlink:href="#linear-gradient"/>
    <linearGradient id="linear-gradient-17" x1="324.23" y1="160.41" x2="493.43" y2="160.41" xlink:href="#linear-gradient"/>
    <linearGradient id="linear-gradient-18" x1="439.59" y1="102.53" x2="493.38" y2="102.53" xlink:href="#linear-gradient"/>
    <linearGradient id="linear-gradient-19" x1="578.79" y1="626.34" x2="729.43" y2="626.34" xlink:href="#linear-gradient"/>
    <linearGradient id="linear-gradient-20" x1="577.63" y1="523.87" x2="730.47" y2="523.87" xlink:href="#linear-gradient"/>
    <linearGradient id="linear-gradient-21" x1="569.84" y1="575.01" x2="738.22" y2="575.01" xlink:href="#linear-gradient"/>
  </defs>
  <g>
    <circle class="cls-22" cx="408.83" cy="438.75" r="375.71"/>
    <g>
      <circle class="cls-24" cx="408.83" cy="438.75" r="248.93"/>
      <g>
        <path class="cls-19" d="M357.4,484.73c.23-.12.39-.19.53-.27,1.95-1.14,3.88-2.29,5.84-3.4.29-.16.72-.23,1.04-.16,4.28.91,8.54,1.97,12.84,2.77,6.67,1.25,13.39,1.81,20.18,1.35,6.65-.45,13-2.06,19.05-4.84,5.48-2.51,10.54-5.74,15.41-9.25,8.81-6.35,17.59-12.76,26.38-19.15.97-.71,1.29-1.83.87-2.98-1.7-4.55-5.76-7.1-10.59-6.71-3.29.26-6.33,1.36-9.27,2.76-4.83,2.31-9.23,5.31-13.58,8.39-.21.15-.38.39-.51.62-.92,1.69-2.14,3.12-3.65,4.31-2.68,2.1-5.77,3.28-9.06,3.97-7.61,1.58-15.2,1.18-22.79-.2-.91-.17-1.39-.88-1.22-1.68.17-.84.88-1.26,1.83-1.08,3.44.65,6.91,1.07,10.41,1.17,4.61.14,9.18-.1,13.62-1.53,2.5-.81,4.77-2,6.63-3.9.31-.31.42-.58.17-.98-.51-.79-.93-1.66-1.51-2.4-2.03-2.59-4.83-4-7.89-4.97-4.26-1.34-8.67-1.72-13.11-1.74-3.96-.01-7.92.16-11.88.21-.48,0-.99-.15-1.42-.35-1.59-.72-3.12-1.58-4.73-2.24-4.95-2.04-10.07-2.82-15.4-1.96-4.52.73-8.69,2.42-12.55,4.8-4.08,2.52-8.01,5.29-12,7.95-.48.32-.95.68-1.43,1.03,5.94,10.16,11.85,20.26,17.78,30.42ZM460.24,392.73c-1.87,1.09-3.7,2.08-5.45,3.21-.99.64-1.87.7-2.99.41-8.38-2.16-16.85-3.77-25.53-4.03-8.81-.26-17.28,1.2-25.33,4.88-5.93,2.71-11.36,6.25-16.62,10.06-8.45,6.1-16.86,12.25-25.29,18.38-1.07.78-1.38,1.88-.89,3.12,1.82,4.53,5.53,6.89,10.41,6.61,3.34-.19,6.41-1.33,9.39-2.75,4.72-2.24,9.02-5.17,13.27-8.17.36-.26.69-.62.91-1.01,1.06-1.84,2.44-3.37,4.17-4.59,3.28-2.32,7.02-3.41,10.94-3.98,5.56-.82,11.13-.66,16.69.07,1.25.16,2.5.38,3.74.63.82.17,1.27.88,1.12,1.64-.16.79-.85,1.25-1.7,1.12-.12-.02-.25-.04-.37-.06-4.46-.84-8.97-1.25-13.51-1.15-3.81.08-7.56.53-11.16,1.86-2.16.79-4.12,1.92-5.74,3.58-.3.31-.39.57-.19.99.75,1.53,1.74,2.88,3.04,3.99,2.14,1.83,4.66,2.92,7.35,3.65,4.16,1.14,8.42,1.46,12.7,1.46,3.79,0,7.58-.17,11.37-.23.44,0,.91.13,1.31.31,1.66.76,3.27,1.65,4.96,2.34,5.1,2.09,10.38,2.79,15.85,1.78,4.32-.8,8.34-2.45,12.04-4.76,4.16-2.59,8.17-5.42,12.25-8.14.36-.24.71-.51,1.07-.77-5.94-10.16-11.84-20.26-17.79-30.44ZM423.4,452.12c5.26-3.75,10.48-7.38,16.41-10.04-2.26-1.35-4.59-1.57-7-1.25-2.13.29-4.13,1-6.07,1.89-2.7,1.23-5.24,2.76-7.81,4.41,1.88,1.34,3.34,2.98,4.47,4.99ZM394.26,425.36c-5.25,3.74-10.47,7.37-16.34,10.12,1,.44,1.98.88,3.01,1.09,2.64.53,5.19,0,7.68-.88,3.31-1.18,6.32-2.95,9.29-4.81.26-.16.5-.34.8-.54-1.87-1.35-3.33-2.96-4.45-4.98Z"/>
        <path class="cls-19" d="M500.02,416c-.43.95-1.24,1.47-2.1,1.97-4.23,2.45-8.43,4.93-12.65,7.38-1.43.83-2.81.47-3.62-.92-6.95-11.88-13.89-23.77-20.83-35.65-.91-1.57-.58-2.86.99-3.78,4.43-2.6,8.86-5.19,13.3-7.78.25-.15.52-.27.78-.4.42,0,.84,0,1.26,0,.81.34,1.34.95,1.77,1.7,4.52,7.77,9.07,15.52,13.6,23.28,2.51,4.31,5,8.62,7.5,12.94v1.26Z"/>
        <path class="cls-19" d="M317.64,461.63c.3-.92.98-1.46,1.79-1.93,4.3-2.49,8.58-5.01,12.87-7.52,1.56-.91,2.88-.57,3.79.99,6.9,11.81,13.81,23.62,20.72,35.43.98,1.67.64,2.96-1.01,3.92-4.32,2.53-8.65,5.06-12.97,7.59-.34.2-.69.38-1.04.57h-1.14c-.84-.29-1.39-.86-1.84-1.62-3-5.17-6.03-10.32-9.04-15.48-4.05-6.94-8.09-13.88-12.13-20.82,0-.38,0-.76,0-1.14Z"/>
        <path class="cls-19" d="M357.4,484.73c-5.93-10.15-11.84-20.25-17.78-30.42.49-.35.95-.71,1.43-1.03,3.99-2.66,7.92-5.43,12-7.95,3.85-2.38,8.03-4.07,12.55-4.8,5.33-.86,10.45-.08,15.4,1.96,1.61.67,3.14,1.52,4.73,2.24.44.2.95.35,1.42.35,3.96-.05,7.92-.23,11.88-.21,4.43.02,8.84.4,13.11,1.74,3.06.96,5.86,2.37,7.89,4.97.58.74,1,1.6,1.51,2.4.26.4.14.67-.17.98-1.86,1.9-4.14,3.09-6.63,3.9-4.44,1.43-9.01,1.67-13.62,1.53-3.5-.1-6.97-.52-10.41-1.17-.95-.18-1.66.24-1.83,1.08-.17.8.31,1.52,1.22,1.68,7.58,1.38,15.18,1.78,22.79.2,3.29-.68,6.38-1.87,9.06-3.97,1.51-1.19,2.73-2.62,3.65-4.31.13-.23.3-.47.51-.62,4.35-3.08,8.75-6.08,13.58-8.39,2.94-1.4,5.97-2.5,9.27-2.76,4.84-.38,8.89,2.16,10.59,6.71.43,1.14.11,2.27-.87,2.98-8.79,6.39-17.57,12.79-26.38,19.15-4.87,3.51-9.93,6.74-15.41,9.25-6.06,2.78-12.4,4.39-19.05,4.84-6.79.46-13.52-.11-20.18-1.35-4.3-.8-8.56-1.86-12.84-2.77-.33-.07-.76,0-1.04.16-1.96,1.11-3.9,2.26-5.84,3.4-.14.08-.3.15-.53.27Z"/>
        <path class="cls-19" d="M460.24,392.73c5.95,10.18,11.86,20.29,17.79,30.44-.36.26-.71.53-1.07.77-4.08,2.73-8.09,5.55-12.25,8.14-3.7,2.31-7.71,3.96-12.04,4.76-5.46,1.01-10.74.3-15.85-1.78-1.69-.69-3.3-1.58-4.96-2.34-.4-.18-.87-.32-1.31-.31-3.79.06-7.58.23-11.37.23-4.28,0-8.55-.32-12.7-1.46-2.69-.74-5.2-1.82-7.35-3.65-1.3-1.11-2.28-2.46-3.04-3.99-.21-.42-.11-.68.19-.99,1.63-1.66,3.58-2.79,5.74-3.58,3.6-1.33,7.35-1.77,11.16-1.86,4.54-.1,9.05.31,13.51,1.15.12.02.25.04.37.06.85.13,1.54-.32,1.7-1.12.15-.75-.29-1.47-1.12-1.64-1.24-.25-2.49-.46-3.74-.63-5.56-.73-11.13-.89-16.69-.07-3.91.58-7.65,1.66-10.94,3.98-1.73,1.22-3.11,2.76-4.17,4.59-.22.38-.55.75-.91,1.01-4.25,3-8.56,5.92-13.27,8.17-2.98,1.42-6.05,2.56-9.39,2.75-4.88.28-8.59-2.08-10.41-6.61-.5-1.24-.18-2.34.89-3.12,8.43-6.13,16.85-12.28,25.29-18.38,5.26-3.8,10.69-7.34,16.62-10.06,8.05-3.68,16.52-5.14,25.33-4.88,8.68.26,17.15,1.87,25.53,4.03,1.12.29,2,.23,2.99-.41,1.74-1.13,3.58-2.12,5.45-3.21Z"/>
        <path class="cls-19" d="M423.4,452.12c-1.14-2.01-2.6-3.64-4.47-4.99,2.57-1.65,5.11-3.18,7.81-4.41,1.94-.88,3.95-1.6,6.07-1.89,2.41-.33,4.74-.1,7,1.25-5.93,2.66-11.15,6.29-16.41,10.04Z"/>
        <path class="cls-19" d="M394.26,425.36c1.13,2.02,2.59,3.63,4.45,4.98-.3.2-.55.38-.8.54-2.96,1.86-5.97,3.63-9.29,4.81-2.49.89-5.04,1.41-7.68.88-1.03-.21-2.02-.65-3.01-1.09,5.86-2.75,11.09-6.39,16.34-10.12Z"/>
      </g>
    </g>
  </g>
  <g>
    <circle class="cls-23" cx="163.97" cy="575.2" r="153.27"/>
    <g>
      <path class="cls-13" d="M73.65,669.6c-3.14-1.96-3.63-3.52-2.14-6.88,5.64-12.67,11.28-25.33,16.92-38,.22-.5.48-.97.74-1.47.17.11.3.14.34.22,2.1,4.57,5.61,7.69,10.12,9.75,3.38,1.54,5.82,3.97,7.39,7.36,2.13,4.59,5.21,8.32,10.51,10.36-2.3,1.05-4.17,1.91-6.05,2.75-11.72,5.2-23.44,10.4-35.15,15.6-.16.07-.3.2-.45.3h-2.21Z"/>
      <path class="cls-15" d="M209.06,606.77c-.04,2.51-.84,3.78-2.36,4.47-5.36,2.44-10.74,4.83-16.16,7.15-.45.19-1.39-.16-1.8-.56-4.22-4.13-8.37-8.31-12.54-12.48-17.81-17.82-35.62-35.64-53.47-53.43-.97-.97-1.21-1.67-.6-2.97,2.23-4.78,4.32-9.63,6.47-14.45,1.7-3.8,4.77-4.41,7.68-1.5,23.64,23.63,47.29,47.27,70.89,70.94.94.94,1.5,2.25,1.87,2.83Z"/>
      <path class="cls-21" d="M118.71,556.77c21.66,21.66,43.16,43.15,64.82,64.81-2.78,1.25-5.73,2.28-8.38,3.82-3.64,2.11-6.94,2.4-10.7.16-2.66-1.59-5.73-2.49-8.62-3.67-3-1.23-5.1-3.3-6.32-6.32-1.42-3.53-2.95-7.01-4.38-10.53-1.91-4.69-5.17-7.97-9.87-9.86-3.58-1.44-7.13-2.99-10.7-4.46-2.81-1.16-4.8-3.11-5.99-5.92-1.9-4.46-3.84-8.9-5.73-13.36-.17-.4-.19-.99-.02-1.37,1.94-4.44,3.92-8.85,5.9-13.28Z"/>
      <path class="cls-8" d="M162.17,631.09c-3.16,1.41-6,2.68-8.84,3.95-3.47,1.55-6.93,3.15-10.44,4.6-.54.22-1.58.04-1.99-.36-13.34-13.25-26.63-26.55-39.89-39.87-.37-.37-.67-1.24-.49-1.65,2.76-6.36,5.61-12.68,8.44-19,.04-.1.18-.16.36-.32,1.15,2.74,2.33,5.42,3.41,8.15,1.9,4.78,5.26,8.04,10.02,9.95,3.36,1.35,6.67,2.81,10.03,4.15,3.27,1.3,5.52,3.53,6.82,6.81,1.38,3.48,2.89,6.9,4.3,10.37,1.88,4.63,5.16,7.83,9.78,9.7,2.72,1.1,5.42,2.26,8.49,3.54Z"/>
      <path class="cls-5" d="M97.31,604.83c12.73,12.73,25.4,25.39,38.16,38.14-3.5,1.56-7.11,3.2-10.75,4.75-.39.17-1.06-.09-1.51-.33-1.94-1.06-3.93-2.05-5.73-3.32-1.27-.89-2.31-2.14-3.36-3.32-.52-.58-.88-1.33-1.21-2.06-2.34-5.22-6.05-9.09-11.33-11.29-4.93-2.05-6.5-6.77-8.96-10.81-.18-.3-.17-.86-.02-1.2,1.56-3.58,3.17-7.14,4.71-10.58Z"/>
      <path class="cls-14" d="M221.26,584.68c.79.2,1.16.27,1.5.39,14.25,5.07,25.41,13.7,31.82,27.74.94,2.06,1.68,4.21,2.41,6.36.67,1.96-.1,3.6-1.83,4.17-1.61.53-3.19-.31-3.83-2.21-1.95-5.82-4.65-11.2-8.65-15.91-5.68-6.68-12.9-11.05-20.99-14.16-.89-.34-1.99-.79-2.39-1.52-.46-.83-.58-2.19-.21-3.04.37-.85,1.54-1.34,2.17-1.83Z"/>
      <path class="cls-17" d="M79.74,491.4c.31.08.85.19,1.37.35,13.62,4.34,23.6,12.98,30.11,25.65,1.26,2.45,2.3,5.01,3.34,7.56.99,2.42.44,4.16-1.36,4.83-1.86.7-3.33-.19-4.26-2.63-2.66-7.02-6.27-13.44-11.61-18.8-4.9-4.92-10.7-8.36-17.24-10.6-.69-.24-1.42-.43-2.06-.78-1.36-.75-1.8-2-1.4-3.45.38-1.4,1.41-2.1,3.11-2.14Z"/>
      <path class="cls-16" d="M219.2,539.57c-2.14-.06-3.45-2.02-2.66-4.22,2.93-8.18,7.11-15.61,13.32-21.8,5.81-5.79,12.7-9.76,20.49-12.24,2.19-.7,3.81-.06,4.39,1.7.59,1.79-.26,3.29-2.46,4.01-14.88,4.82-24.33,15.08-29.7,29.47-.87,2.33-1.76,3.12-3.37,3.08Z"/>
      <path class="cls-20" d="M196.7,515.5c-.18,2.32-.32,4.65-.56,6.97-.22,2.13-1.52,3.38-3.23,3.25-1.84-.14-2.79-1.56-2.75-3.84.07-3.98.36-7.98.03-11.93-.75-8.75-4.51-16.21-10.54-22.55-.38-.4-.79-.78-1.16-1.19-1.44-1.59-1.48-3.3-.13-4.56,1.28-1.2,2.95-1.11,4.42.31,4.23,4.1,7.62,8.8,10,14.21,2.72,6.16,3.89,12.63,3.93,19.35Z"/>
      <path class="cls-7" d="M239.94,569.66c-5.48,0-9.96-4.51-9.92-9.99.04-5.39,4.52-9.83,9.91-9.84,5.45,0,9.99,4.58,9.93,10.01-.06,5.4-4.52,9.82-9.92,9.82ZM243.73,559.82c.04-2.19-1.58-3.85-3.76-3.87-2.18-.01-3.85,1.64-3.84,3.81.01,2.08,1.61,3.74,3.69,3.8,2.15.07,3.88-1.59,3.92-3.74Z"/>
      <path class="cls-1" d="M153.25,518.53c-5.44-.04-9.84-4.46-9.84-9.87,0-5.49,4.48-9.9,10.02-9.87,5.52.04,9.91,4.53,9.82,10.04-.09,5.42-4.54,9.74-10,9.69ZM153.34,504.81c-2.11,0-3.82,1.74-3.8,3.89.02,2.09,1.63,3.74,3.7,3.8,2.13.05,3.89-1.65,3.91-3.79.03-2.13-1.7-3.9-3.81-3.9Z"/>
      <path class="cls-9" d="M216.3,640.46c0-5.54,4.43-9.96,9.94-9.93,5.42.03,9.79,4.45,9.81,9.89.01,5.5-4.49,10-9.96,9.95-5.42-.05-9.79-4.47-9.79-9.91ZM226.17,644.24c2.17,0,3.85-1.69,3.83-3.85-.02-2.07-1.65-3.71-3.74-3.76-2.13-.05-3.92,1.65-3.95,3.76-.03,2.1,1.72,3.84,3.85,3.85Z"/>
      <path class="cls-12" d="M94.03,538.88c3.9.63,5,1.38,4.91,3.34-.08,1.89-1.12,2.55-4.97,3.08-.16,2.18.01,4.75-3.22,4.88-1.91.07-2.51-.92-3.2-4.86-3.88-.67-4.87-1.32-4.87-3.21,0-1.98,1.14-2.73,4.59-3.15.56-1.49.94-2.94,1.64-4.21.27-.48,1.27-.74,1.95-.76,1.91-.06,2.67,1.18,3.16,4.89Z"/>
      <path class="cls-6" d="M190.44,552.31c-3.86-.52-5.01-1.28-4.99-3.22.02-1.94,1.24-2.72,4.63-3.12.55-1.5.93-2.95,1.63-4.21.27-.48,1.28-.74,1.96-.76,1.86-.06,2.52,1.05,3.14,4.92,3.88.54,4.86,1.18,4.88,3.16.02,1.96-.92,2.59-4.81,3.24-.95,4.21-1.57,5.05-3.58,4.87-1.9-.17-2.52-1.2-2.86-4.88Z"/>
      <path class="cls-10" d="M175.59,654.67c3.97.55,4.99,1.21,5.01,3.17.02,1.99-1.01,2.68-4.99,3.26-.2,2.21.07,4.94-3.39,4.85-1.9-.05-2.5-1.14-2.86-4.92-2.22-.2-4.95.06-4.97-3.34-.01-1.9,1.17-2.55,5.05-2.99,0-2.24-.1-4.78,3.12-4.93,1.97-.09,2.75,1.26,3.03,4.91Z"/>
    </g>
  </g>
  <g>
    <circle class="cls-23" cx="408.83" cy="156.81" r="153.27"/>
    <g>
      <path class="cls-2" d="M408.97,95.28c8.33-6.98,17.81-11.1,28.91-12.19-5.7,9.01-7.4,18.44-4.73,28.5,2.01,7.56,6.31,13.63,12.42,18.5,10.99,8.74,32.16,11.5,47.03-4.63.99,5.14,1.04,10.19.35,15.25-1.63,12.07-7.17,22.12-15.71,30.66-21.55,21.57-43.07,43.18-64.64,64.74-.92.92-2.25,1.87-3.43,1.93-1.17.06-2.67-.7-3.56-1.58-13.24-13.16-26.42-26.38-39.59-39.61-9.36-9.4-19.01-18.53-27.95-28.32-13.59-14.87-17.26-32.45-10.65-51.38,6.56-18.79,20.32-30.16,39.94-33.57,15.01-2.61,28.64,1.29,40.55,10.92.32.26.66.5,1.05.79ZM392.11,133.35c.53.93.9,1.54,1.25,2.17,5.85,10.54,11.7,21.09,17.56,31.63,1.86,3.35,4.63,3.64,7.18.74,3.85-4.37,7.76-8.69,11.45-13.19,1.37-1.67,2.8-2.19,4.88-2.17,8.81.1,17.63.04,26.45.04.48,0,.96.02,1.44,0,2.49-.13,4.13-1.65,4.14-3.85.02-2.19-1.62-3.86-4.1-3.87-10.79-.05-21.59-.08-32.38.06-1.19.02-2.64.88-3.5,1.79-3.44,3.69-6.69,7.55-9.99,11.36-.34.39-.55.89-.95,1.55-.64-1.11-.98-1.67-1.29-2.24-6.14-11.07-12.29-22.13-18.4-33.22-.87-1.58-1.99-2.77-3.87-2.77-1.91,0-2.96,1.25-3.79,2.85-3.24,6.29-6.58,12.54-9.78,18.85-.65,1.29-1.36,1.81-2.85,1.78-6.42-.09-12.83-.05-19.25-.03-.77,0-1.57.05-2.31.26-1.63.45-2.69,1.97-2.68,3.64.01,1.68,1.09,3.16,2.74,3.6.74.2,1.54.24,2.31.24,7.2.02,14.4-.09,21.59.06,2.98.06,4.78-1.01,6.08-3.7,2.51-5.17,5.27-10.22,8.06-15.57Z"/>
      <path class="cls-18" d="M493.38,102.69c-.2,14.93-12.34,26.93-27.1,26.79-14.8-.14-26.86-12.42-26.69-27.19.17-14.79,12.55-26.95,27.19-26.7,14.81.26,26.79,12.47,26.6,27.1ZM471.47,97.43c0-1.64.01-3.02,0-4.39-.04-3.53-2.16-5.93-5.18-5.89-2.97.04-5.01,2.36-5.07,5.81-.03,1.42,0,2.84,0,4.47-1.77,0-3.31-.03-4.86,0-3.11.06-5.36,2.24-5.32,5.13.04,2.88,2.3,4.99,5.43,5.03,1.54.02,3.07,0,4.75,0,0,1.73-.04,3.23,0,4.72.11,3.33,2.2,5.51,5.18,5.48,2.97-.03,5-2.26,5.07-5.59.03-1.48,0-2.96,0-4.61,1.82,0,3.42.04,5.03,0,2.97-.09,5.14-2.29,5.12-5.14-.02-2.79-2.14-4.91-5.05-5-1.61-.05-3.22,0-5.09,0Z"/>
    </g>
  </g>
  <g>
    <circle class="cls-23" cx="654.03" cy="575.2" r="153.27"/>
    <g>
      <path class="cls-3" d="M578.79,663.89v-75.1h150.64v75.1h-150.64ZM654.3,607.85c-2.98-1.57-5.74-3.51-8.82-4.55-7.32-2.48-13.97,1.67-15.27,9.27-1.12,6.5,1.39,12.04,5.06,17.13,4.68,6.48,10.85,11.32,17.74,15.25.62.35,1.91.27,2.48-.15,4.71-3.54,9.59-6.92,13.89-10.93,4.77-4.45,8.03-10.02,8.8-16.7.56-4.87-.67-9.24-4.7-12.33-3.88-2.98-8.22-2.89-12.48-.94-2.4,1.1-4.58,2.68-6.7,3.95Z"/>
      <path class="cls-11" d="M730.47,537.84c-7.14,4.12-14.3,8.26-21.69,12.53-1.82-3.14-3.57-6.18-5.33-9.22-1.08-1.87-2.05-3.83-3.32-5.57-.56-.77-1.75-1.07-2.66-1.58-.46.87-1.32,1.73-1.33,2.61-.11,7.51-.06,15.02-.06,22.52,0,.64,0,1.28,0,2.09h-83.94c0-.75,0-1.51,0-2.28,0-7.36,0-14.73,0-22.09,0-1.28,0-2.78-1.58-2.81-.87-.01-2.09.86-2.59,1.68-2.89,4.73-5.6,9.57-8.52,14.63-7.31-4.22-14.51-8.37-21.82-12.59.41-.78.72-1.42,1.07-2.03,5.62-9.74,11.29-19.47,16.86-29.24,1.54-2.7,3.65-4.53,6.48-5.77,9.97-4.37,19.9-8.82,29.85-13.24,3.46-1.54,3.99-1.4,6.4,1.51,2.54,3.06,6.08,4.31,9.8,5.08,5.26,1.08,10.48.81,15.57-.98,2.78-.98,5.21-2.43,6.92-4.94,1.14-1.68,2.72-2.01,4.56-1.2,10.8,4.8,21.64,9.52,32.37,14.47,1.73.8,3.43,2.34,4.4,3.98,6.23,10.47,12.26,21.07,18.35,31.63.1.18.11.41.21.81Z"/>
      <path class="cls-4" d="M570.04,584.1c-.08-.54-.19-.96-.2-1.38-.01-5.55,0-11.11,0-16.81h168.38v18.19h-168.17Z"/>
    </g>
  </g>
</svg>