<?xml version="1.0" encoding="UTF-8"?>
<svg id="Layer_1" data-name="Layer 1" xmlns="http://www.w3.org/2000/svg" version="1.1" xmlns:xlink="http://www.w3.org/1999/xlink" viewBox="0 0 817 817">
  <defs>
    <style>
      .cls-1 {
        fill: url(#linear-gradient-12);
      }

      .cls-1, .cls-2, .cls-3, .cls-4, .cls-5, .cls-6, .cls-7, .cls-8, .cls-9, .cls-10, .cls-11, .cls-12, .cls-13, .cls-14, .cls-15, .cls-16 {
        stroke-width: 0px;
      }

      .cls-17 {
        fill: none;
      }

      .cls-17, .cls-18 {
        stroke: #957cff;
      }

      .cls-17, .cls-18, .cls-19 {
        stroke-miterlimit: 10;
        stroke-width: 4px;
      }

      .cls-2 {
        fill: url(#linear-gradient-6);
      }

      .cls-3 {
        fill: url(#linear-gradient-15);
      }

      .cls-18, .cls-14 {
        fill: #fff;
      }

      .cls-4 {
        fill: url(#linear-gradient-11);
      }

      .cls-5 {
        fill: url(#linear-gradient-5);
      }

      .cls-6 {
        fill: url(#linear-gradient-13);
      }

      .cls-7 {
        fill: url(#linear-gradient-16);
      }

      .cls-19 {
        fill: url(#linear-gradient);
        stroke: #fff;
      }

      .cls-8 {
        fill: url(#linear-gradient-14);
      }

      .cls-9 {
        fill: url(#linear-gradient-2);
      }

      .cls-10 {
        fill: url(#linear-gradient-7);
      }

      .cls-11 {
        fill: url(#linear-gradient-3);
      }

      .cls-12 {
        fill: url(#linear-gradient-9);
      }

      .cls-13 {
        fill: url(#linear-gradient-8);
      }

      .cls-15 {
        fill: url(#linear-gradient-10);
      }

      .cls-16 {
        fill: url(#linear-gradient-4);
      }
    </style>
    <linearGradient id="linear-gradient" x1="159.9" y1="438.75" x2="657.76" y2="438.75" gradientUnits="userSpaceOnUse">
      <stop offset="0" stop-color="#4e37d3"/>
      <stop offset=".51" stop-color="#613df4"/>
      <stop offset="1" stop-color="#8e7bff"/>
    </linearGradient>
    <linearGradient id="linear-gradient-2" x1="329.69" y1="185.51" x2="487.97" y2="185.51" xlink:href="#linear-gradient"/>
    <linearGradient id="linear-gradient-3" x1="364.47" y1="107.02" x2="453.07" y2="107.02" xlink:href="#linear-gradient"/>
    <linearGradient id="linear-gradient-4" x1="387.5" y1="199.03" x2="430.16" y2="199.03" xlink:href="#linear-gradient"/>
    <linearGradient id="linear-gradient-5" x1="551.92" y1="546.29" x2="756.14" y2="546.29" xlink:href="#linear-gradient"/>
    <linearGradient id="linear-gradient-6" x1="630.42" y1="625.47" x2="749.99" y2="625.47" xlink:href="#linear-gradient"/>
    <linearGradient id="linear-gradient-7" x1="86.42" y1="588.45" x2="221.11" y2="605.66" xlink:href="#linear-gradient"/>
    <linearGradient id="linear-gradient-8" x1="79.82" y1="640.1" x2="214.51" y2="657.31" xlink:href="#linear-gradient"/>
    <linearGradient id="linear-gradient-9" x1="95.84" y1="514.73" x2="230.53" y2="531.94" xlink:href="#linear-gradient"/>
    <linearGradient id="linear-gradient-10" x1="94.56" y1="524.75" x2="229.25" y2="541.96" xlink:href="#linear-gradient"/>
    <linearGradient id="linear-gradient-11" x1="93.16" y1="535.71" x2="227.85" y2="552.92" xlink:href="#linear-gradient"/>
    <linearGradient id="linear-gradient-12" x1="97.77" y1="499.65" x2="232.46" y2="516.86" xlink:href="#linear-gradient"/>
    <linearGradient id="linear-gradient-13" x1="95.63" y1="516.33" x2="230.32" y2="533.54" xlink:href="#linear-gradient"/>
    <linearGradient id="linear-gradient-14" x1="98.58" y1="493.25" x2="233.27" y2="510.46" xlink:href="#linear-gradient"/>
    <linearGradient id="linear-gradient-15" x1="96.18" y1="512.04" x2="230.87" y2="529.25" xlink:href="#linear-gradient"/>
    <linearGradient id="linear-gradient-16" x1="100.18" y1="480.74" x2="234.87" y2="497.95" xlink:href="#linear-gradient"/>
  </defs>
  <g>
    <circle class="cls-17" cx="408.83" cy="438.75" r="375.71"/>
    <g>
      <circle class="cls-19" cx="408.83" cy="438.75" r="248.93"/>
      <g>
        <path class="cls-14" d="M407.51,523.15c-3.95-1.34-5.58-4.13-5.29-8.22.12-1.69.02-3.39.02-4.87-36.9-6.27-58.33-27.68-64.73-64.71-1.74,0-3.87,0-5.99,0-4.14-.02-7.09-2.8-7.07-6.63.02-3.83,2.97-6.54,7.15-6.55,2.08,0,4.15,0,5.9,0,6.36-36.96,27.76-58.4,64.74-64.72,0-1.67,0-3.63,0-5.6,0-4.48,2.62-7.46,6.55-7.48,4.01-.02,6.63,2.96,6.64,7.56,0,1.92,0,3.83,0,5.49,36.9,6.32,58.34,27.73,64.73,64.76,1.36,0,3.11.1,4.84-.02,4.09-.28,6.89,1.34,8.23,5.3v2.64c-1.34,3.95-4.14,5.57-8.23,5.29-1.74-.12-3.49-.02-4.84-.02-6.4,37.02-27.83,58.43-64.73,64.74,0,1.45-.1,3.15.02,4.84.28,4.09-1.35,6.89-5.29,8.22h-2.64ZM466.37,432.15c-3.02-28.83-27.43-49.06-50.95-50.86,0,1.81,0,3.62,0,5.43-.02,4.19-2.7,7.15-6.52,7.18-3.89.04-6.65-2.94-6.66-7.21,0-1.84,0-3.68,0-5.54-28.14,3.15-48.57,26.21-50.93,51,1.93,0,3.84-.01,5.75,0,4.01.03,6.94,2.83,6.94,6.6,0,3.77-2.93,6.55-6.95,6.58-1.91.02-3.83,0-5.75,0,2.95,28.5,27.1,48.98,50.95,50.86,0-1.81,0-3.62,0-5.43.02-4.19,2.7-7.15,6.52-7.18,3.9-.04,6.65,2.93,6.66,7.2,0,1.84,0,3.68,0,5.54,27.95-3.11,48.54-26.04,50.93-51-1.93,0-3.84.01-5.75,0-4.01-.03-6.94-2.83-6.93-6.6,0-3.77,2.94-6.55,6.96-6.58,1.91-.01,3.83,0,5.75,0Z"/>
        <path class="cls-14" d="M404.14,445.57c7.62-7.63,14.97-14.96,22.28-22.32,1.46-1.47,3.1-2.41,5.23-2.35,2.59.07,4.53,1.26,5.72,3.53,1.22,2.34,1.02,4.67-.48,6.84-.37.54-.85,1.01-1.31,1.47-8.26,8.27-16.52,16.56-24.83,24.79-1.19,1.18-2.58,2.25-4.05,3.04-2.36,1.26-4.77.96-6.69-.93-6.3-6.2-12.57-12.43-18.75-18.76-2.53-2.59-2.34-6.56.16-9.07,2.55-2.56,6.59-2.63,9.34.02,3.64,3.5,7.18,7.11,10.73,10.7.92.93,1.73,1.97,2.64,3.02Z"/>
      </g>
    </g>
  </g>
  <g>
    <circle class="cls-18" cx="408.83" cy="156.81" r="153.27"/>
    <g>
      <path class="cls-9" d="M484.06,245.74h-150.47c-2.58-1.2-3.9-3.06-3.9-6.08.05-36.13.03-72.25.04-108.38,0-3.88,2-5.94,5.83-5.96,6.24-.03,12.48.02,18.72-.03,1.15,0,1.57.4,1.86,1.48,1.58,6.04,4.24,11.6,7.79,16.73.55.79,1.11,1.57,1.79,2.52-1.71.12-3.21.09-4.65.36-2.32.44-3.91,2.5-3.97,4.84-.06,2.37,1.4,4.51,3.64,5.11.93.25,1.94.24,2.92.24,21.84.01,43.68,0,65.52,0,8.61,0,17.22.02,25.83-.01,3.3-.01,5.52-2.15,5.53-5.17,0-3-2.23-5.14-5.51-5.23-.96-.03-1.91,0-3.09,0,.24-.46.32-.66.44-.83,4.28-5.7,7.42-11.97,9.2-18.89.27-1.05.89-1.13,1.77-1.13,5.95.02,11.9.01,17.85.01,4.93,0,6.7,1.76,6.7,6.66,0,35.66-.03,71.33.05,106.99,0,3.2-.93,5.49-3.91,6.78ZM408.8,176.64c-3.56-3.06-7.63-4.8-12.22-4.79-8.07,0-14.18,3.62-17.6,10.96-3.41,7.33-2.57,14.57,2.92,20.51,7.49,8.1,15.47,15.75,23.3,23.54,2.13,2.12,5.15,2.1,7.31-.05,7.79-7.74,15.7-15.37,23.19-23.4,7.53-8.06,6.1-20.92-2.62-27.66-6.38-4.93-16.22-5.84-24.28.89Z"/>
      <path class="cls-11" d="M412.64,67.88c3.09.67,6.24,1.13,9.26,2.03,19.62,5.89,32.7,25.22,31.03,45.66-.95,11.73-5.81,21.54-14.43,29.47-.68.62-1.8,1.07-2.72,1.07-17.97.06-35.94.06-53.91,0-.92,0-2.06-.44-2.72-1.08-12.72-12.11-17.48-26.91-13.08-43.88,4.46-17.17,15.99-27.82,33.17-32.2,1.89-.48,3.84-.72,5.76-1.07,2.54,0,5.08,0,7.63,0ZM408.48,135.7c2.76.01,5.02-1.86,5.18-4.55.08-1.29.6-1.83,1.69-2.4,5.75-3.02,8.73-7.85,8.45-14.36-.27-6.39-3.91-10.37-9.74-12.59-2.47-.94-4.88-2.06-7.3-3.14-1-.45-1.77-1.09-1.47-2.4.29-1.24.93-2.04,2.22-2.37,2.06-.52,3.82.03,5.56,1.15,2.74,1.76,5.49,1.15,7.27-1.42,1.56-2.26,1.05-5.21-1.4-7.04-1.23-.92-2.72-1.5-4.04-2.31-.47-.29-1.04-.75-1.15-1.23-.7-3.04-2.53-4.75-5.29-4.74-2.61,0-4.53,1.92-5.12,4.95-.1.51-.53,1.13-.98,1.37-4.91,2.58-7.41,6.65-7.52,12.16-.1,5.36,2.7,8.96,7.31,11.21,2.84,1.39,5.82,2.5,8.74,3.74,2.33.99,3.14,2.75,2.25,5.03-.77,1.95-2.21,3.04-4.33,3.21-2.62.22-4.97-.37-7.24-1.8-2.45-1.55-5.5-.73-7,1.6-1.46,2.26-1,5.47,1.29,6.95,1.87,1.2,3.95,2.14,6.03,2.93,1,.37,1.48.73,1.67,1.79.48,2.67,2.39,4.25,4.9,4.26Z"/>
      <path class="cls-16" d="M408.67,215.85c-1.3-1.38-2.49-2.71-3.74-3.97-4.92-4.96-9.88-9.89-14.8-14.85-2.51-2.53-3.24-5.57-2.12-8.93,1.1-3.31,3.52-5.23,6.94-5.76,2.73-.43,5.13.43,7.14,2.31,1.01.95,1.95,1.97,2.95,2.93,2.3,2.19,5.28,2.18,7.59-.02,1.05-.99,2.01-2.07,3.08-3.04,3.48-3.16,8.59-3.04,11.88.24,3.25,3.24,3.49,8.57.24,11.9-6.2,6.37-12.56,12.59-19.16,19.19Z"/>
    </g>
  </g>
  <g>
    <circle class="cls-18" cx="654.03" cy="575.2" r="153.27"/>
    <g>
      <path class="cls-5" d="M551.92,526.42c1.04-.52,2.03-1.22,3.13-1.54,33.25-9.46,66.51-18.89,99.79-28.25,1.45-.41,3.18-.44,4.64-.07,31.29,7.82,62.56,15.72,93.83,23.6,1.56.39,3.27.95,2.7,2.9-.27.91-1.67,1.83-2.72,2.11-14.99,4.07-30,8.03-45.01,12.02-.63.17-1.25.36-2,.58v2.23c0,12.56,0,25.13,0,37.69,0,2.97-.65,3.64-3.63,3.64-32.38,0-64.75,0-97.13,0-3.12,0-3.72-.62-3.72-3.74,0-12.23,0-24.46,0-36.7,0-.73,0-1.45,0-2.14q-2.96-1.16-4.81,1.21c-7.64,9.71-15.29,19.43-22.94,29.14-.36.46-.72.93-1.43,1.86,2.08,0,3.74,0,5.4,0,2.85.01,3.43.57,3.43,3.34,0,6.25.01,12.5,0,18.75,0,2.53-.66,3.2-3.18,3.2-6.32.01-12.63.01-18.95,0-2.51,0-3.16-.66-3.17-3.21-.02-6.32-.02-12.63,0-18.95,0-2.57.65-3.46,3.22-3.06,5.55.86,8.9-1.48,12.1-5.91,6.57-9.1,13.79-17.73,20.73-26.56.36-.45.66-.95,1.14-1.63-6.93-1.27-13.63-2.5-20.33-3.71-6.14-1.11-12.3-2.16-18.42-3.35-.96-.19-1.8-.97-2.69-1.48,0-.66,0-1.33,0-1.99ZM568.88,591.29c1.99,0,3.99-.04,5.98.01,1.18.03,1.68-.39,1.66-1.62-.04-3.99-.05-7.97,0-11.96.02-1.26-.41-1.82-1.72-1.8-3.99.04-7.97.03-11.96,0-1.16,0-1.7.45-1.69,1.65.03,4.05.03,8.1,0,12.16,0,1.26.61,1.59,1.74,1.56,1.99-.05,3.99-.01,5.98-.01Z"/>
      <path class="cls-2" d="M709.64,626.86c0,2.04-.02,3.82,0,5.6.08,6.05.19,12.09.26,18.14.03,2.74-1.17,3.6-3.78,2.82-.06-.02-.13-.03-.19-.06-6.22-3.18-12.41-2.91-18.61.08-.41.2-.88.31-1.32.43-2.36.67-3.59-.22-3.6-2.71-.03-7.31,0-14.62,0-21.93,0-.72,0-1.43,0-2.38h-2.31c-11.7,0-23.39,0-35.09,0-.66,0-1.34-.04-1.99.08-4.69.87-7.95-1.27-10.02-5.17-3.45-6.49-3.44-13.16.05-19.64,1.84-3.43,4.73-5.3,8.89-5.29,30.3.05,60.61-.05,90.91.06,2.83.01,5.88.68,8.44,1.87,5.6,2.62,8.87,7.18,8.7,13.58-.17,6.08-4.35,11.37-10.53,13.36-2.24.72-4.68,1.06-7.03,1.1-7.5.14-15.01.05-22.78.05ZM649.49,601.47c.7,3.52,1.88,6.91,1.9,10.32.02,3.45-1.1,6.9-1.72,10.39,9.91,0,20.13.02,30.36-.05.63,0,1.46-.57,1.85-1.12,4.23-6,3.65-12.03.05-18.09-.65-1.1-1.39-1.5-2.69-1.49-9.49.06-18.99.03-28.48.03h-1.26ZM709.35,622.1c8.77,0,17.21.25,25.63-.09,5.65-.23,10.09-4.73,10.4-9.57.31-4.7-3.18-9.06-8.41-10.48-.51-.14-1.04-.29-1.56-.3-2.92-.09-5.84-.17-8.76-.18-5.76-.03-11.53,0-17.61,0,3.69,6.85,4.22,13.59.32,20.63Z"/>
    </g>
  </g>
  <g>
    <circle class="cls-18" cx="163.97" cy="575.2" r="153.27"/>
    <g>
      <path class="cls-10" d="M113.47,567.75c0,22.83,0,45.66,0,68.49v1.95h100.6c.03-.6.08-1.06.08-1.51,0-23.06.02-46.12,0-69.18,0-6.42-3.89-10.22-10.35-10.22-26.62,0-53.24,0-79.86,0-6.63,0-10.45,3.83-10.46,10.47Z"/>
      <path class="cls-13" d="M217.08,641.14c-.57-.05-1.15-.04-1.72-.04-34.36,0-68.71,0-103.07,0-.46,0-.92-.01-1.38.01-2.91.15-4.39,1.67-4.41,4.59-.02,3.21,0,6.42,0,9.63,0,3.85,1.41,5.24,5.31,5.24,17.32,0,34.64,0,51.96,0,17.49,0,34.99,0,52.48,0,3,0,4.77-1.45,4.83-4.16.09-3.73.08-7.46,0-11.18-.05-2.42-1.57-3.88-4.01-4.09Z"/>
      <path class="cls-12" d="M217.7,503.48c-2.32-.83-4.66-1.59-7.01-2.32-4.58-1.42-7.84.28-9.35,4.88-5.09,15.57-10.18,31.14-15.26,46.71-.17.53-.28,1.08-.49,1.88h22.43s.09-.12.14-.28c4.62-14.15,9.28-28.3,13.84-42.47,1.17-3.64-.7-7.1-4.32-8.4Z"/>
      <path class="cls-15" d="M150.31,554.47h19.27c.08-.36.15-.52.15-.69,0-13.41,0-26.82.02-40.23,0-1.47-.71-2.02-2.14-2.01-4.93.03-9.86,0-14.79.01-2.33,0-2.59.25-2.59,2.53,0,12.9,0,25.79,0,38.69,0,.55.05,1.1.08,1.7Z"/>
      <path class="cls-4" d="M120.62,554.48h22.73c-2.66-9.63-5.28-19.1-7.91-28.61-7.13,1.98-14.06,3.91-21.12,5.87,2.12,7.65,4.24,15.28,6.31,22.74Z"/>
      <path class="cls-1" d="M130.43,507.65c-1.4-4.93-2.68-9.79-4.18-14.58-.63-2.01-2.77-3.05-4.91-2.5-4.43,1.14-8.84,2.39-13.22,3.71-1.96.59-3.25,2.52-2.8,4.4,1.2,4.99,2.62,9.93,3.94,14.85,7.08-1.97,13.97-3.89,21.16-5.89Z"/>
      <path class="cls-6" d="M129.34,510.81c-5.91,1.63-11.81,3.26-17.71,4.91-.94.26-1.48.86-1.18,1.93.92,3.31,1.79,6.63,2.78,9.92.16.53.81.91,1.07,1.19.53-.07.64-.06.75-.1,6.07-1.69,12.14-3.38,18.2-5.09,1.03-.29,1.29-1.03,1.02-2.02-.88-3.14-1.77-6.28-2.61-9.44-.34-1.27-1.1-1.66-2.31-1.32Z"/>
      <path class="cls-8" d="M161.17,493.33c-.58-1.27-1.93-1.06-2.59.34-.88,1.86-1.67,3.77-2.5,5.66-1.35,3.08-2.7,6.16-4.1,9.36h16.01c-2.32-5.24-4.5-10.33-6.82-15.36Z"/>
      <path class="cls-3" d="M180.3,541.79c2.43.11,4.23-1.05,5.22-3.21.68-1.5,1.2-3.11,1.55-4.72,1.51-6.87,2.93-13.77,4.39-20.66.5-2.35,1.88-4.12,4.25-4.37,1.88-.2,2.41-1.08,2.62-2.75-4.35-.85-8.46,1.82-9.5,6.22-.78,3.29-1.36,6.61-2.1,9.91-1.1,4.85-2.23,9.69-3.41,14.52-.32,1.31-1.18,2.25-2.65,2.31-1.53.06-2.66-.63-3.21-2.09-.37-.98-.93-1.72-2.03-1.21-1.07.51-.86,1.48-.47,2.39,1.01,2.35,2.85,3.54,5.35,3.66Z"/>
      <path class="cls-7" d="M220.04,491.62c-1.65-.63-3.35-1.18-5.05-1.65-1.89-.52-3.78.34-4.55,2.15-.74,1.77-1.27,3.63-1.88,5.43,4.17,1.38,8.16,2.7,12.36,4.09.55-1.73,1.18-3.44,1.63-5.2.56-2.19-.42-4.03-2.51-4.82Z"/>
    </g>
  </g>
</svg>