<svg width="48" height="50" viewBox="0 0 48 50" fill="none" xmlns="http://www.w3.org/2000/svg">
<path d="M1.59999 25.0003L0.115194 24.3803C-0.0379097 24.7783 -0.0379097 25.2224 0.115194 25.6203L1.59999 25.0003ZM46.4 25.0003L47.8848 25.6203C48.0379 25.2224 48.0379 24.7783 47.8848 24.3803L46.4 25.0003ZM24 40.0003C16.5952 40.0003 11.3952 36.1603 7.99039 32.2203C6.12992 30.0525 4.56924 27.6246 3.35359 25.007C3.26453 24.8087 3.17919 24.6087 3.09759 24.407L3.08479 24.3837L1.59999 25.0003L0.115194 25.6203V25.627L0.124794 25.6403C0.151438 25.7108 0.179175 25.7808 0.207994 25.8503L0.457594 26.427C1.80641 29.3381 3.54065 32.0378 5.60959 34.447C9.40799 38.8403 15.4048 43.3337 24 43.3337V40.0003ZM1.59999 25.0003L3.08479 25.6203L3.09759 25.5937C3.17568 25.3904 3.26107 25.1902 3.35359 24.9937C4.56924 22.3761 6.12992 19.9482 7.99039 17.7803C11.392 13.8403 16.5952 10.0003 24 10.0003V6.66699C15.4048 6.66699 9.40479 11.1603 5.60959 15.5537C3.54062 17.9628 1.80638 20.6625 0.457594 23.5737C0.341307 23.8334 0.230349 24.0957 0.124794 24.3603L0.118394 24.3737V24.377H0.111994L1.59999 25.0003ZM24 10.0003C31.4048 10.0003 36.6048 13.8403 40.0096 17.7803C41.87 19.9482 43.4307 22.3761 44.6464 24.9937C44.7357 25.1918 44.8211 25.3918 44.9024 25.5937L44.9152 25.617L46.4 25.0003L47.8848 24.3803V24.3737L47.8752 24.3603C47.851 24.2889 47.8232 24.2188 47.792 24.1503C47.4155 23.2713 46.999 22.4114 46.544 21.5737C45.3707 19.4176 43.9782 17.3993 42.3904 15.5537C38.592 11.1603 32.5952 6.66699 24 6.66699V10.0003ZM46.4 25.0003C45.9043 24.7955 45.4094 24.5889 44.9152 24.3803L44.9056 24.407L44.8576 24.5237L44.6464 25.007C43.4307 27.6245 41.87 30.0524 40.0096 32.2203C36.608 36.1603 31.4048 40.0003 24 40.0003V43.3337C32.5952 43.3337 38.5952 38.8403 42.3904 34.4503C44.4597 32.0402 46.1939 29.3394 47.5424 26.427C47.6586 26.1672 47.7695 25.9049 47.8752 25.6403L47.8816 25.627V25.6237L47.8848 25.6203L46.4 25.0003ZM24 30.0003C22.727 30.0003 21.5061 29.4735 20.6059 28.5359C19.7057 27.5982 19.2 26.3264 19.2 25.0003H16C16 27.2105 16.8428 29.3301 18.3431 30.8929C19.8434 32.4557 21.8783 33.3337 24 33.3337V30.0003ZM28.8 25.0003C28.8 26.3264 28.2943 27.5982 27.3941 28.5359C26.4939 29.4735 25.273 30.0003 24 30.0003V33.3337C26.1217 33.3337 28.1566 32.4557 29.6568 30.8929C31.1571 29.3301 32 27.2105 32 25.0003H28.8ZM24 20.0003C25.273 20.0003 26.4939 20.5271 27.3941 21.4648C28.2943 22.4025 28.8 23.6742 28.8 25.0003H32C32 22.7902 31.1571 20.6706 29.6568 19.1078C28.1566 17.545 26.1217 16.667 24 16.667V20.0003ZM24 16.667C21.8783 16.667 19.8434 17.545 18.3431 19.1078C16.8428 20.6706 16 22.7902 16 25.0003H19.2C19.2 23.6742 19.7057 22.4025 20.6059 21.4648C21.5061 20.5271 22.727 20.0003 24 20.0003V16.667Z" fill="#9E9E9E"/>
</svg>
