<svg width="49" height="50" viewBox="0 0 49 50" fill="none" xmlns="http://www.w3.org/2000/svg">
<circle cx="24.404" cy="24.904" r="24.404" fill="#613DF4"/>
<path fill-rule="evenodd" clip-rule="evenodd" d="M20.7762 11.5293C22.2664 10.012 24.2876 9.15967 26.3951 9.15967H30.6739C31.124 9.15967 31.4889 9.53117 31.4889 9.98945V15.7979C31.4889 16.2562 31.124 16.6277 30.6739 16.6277H26.3951C26.233 16.6277 26.0775 16.6933 25.9629 16.81C25.8482 16.9267 25.7838 17.085 25.7838 17.25V20.7766H30.6739C30.9249 20.7766 31.1618 20.8943 31.3163 21.0957C31.4707 21.2971 31.5254 21.5597 31.4646 21.8076L30.0383 27.6161C29.9476 27.9855 29.6216 28.2446 29.2476 28.2446H25.7838V39.0317C25.7838 39.49 25.4189 39.8615 24.9688 39.8615H19.2637C18.8136 39.8615 18.4487 39.49 18.4487 39.0317V28.2446H14.9849C14.5348 28.2446 14.1699 27.8731 14.1699 27.4148V21.6064C14.1699 21.1481 14.5348 20.7766 14.9849 20.7766H18.4487V17.25C18.4487 15.1043 19.2859 13.0465 20.7762 11.5293ZM26.3951 10.8192C24.7199 10.8192 23.1133 11.4968 21.9288 12.7028C20.7442 13.9088 20.0788 15.5445 20.0788 17.25V21.6064C20.0788 22.0646 19.7139 22.4361 19.2637 22.4361H15.7999V26.585H19.2637C19.7139 26.585 20.0788 26.9566 20.0788 27.4148V38.202H24.1538V27.4148C24.1538 26.9566 24.5187 26.585 24.9688 26.585H28.6113L29.6301 22.4361H24.9688C24.5187 22.4361 24.1538 22.0646 24.1538 21.6064V17.25C24.1538 16.6448 24.3899 16.0644 24.8103 15.6365C25.2306 15.2085 25.8007 14.9681 26.3951 14.9681H29.8589V10.8192H26.3951Z" fill="white"/>
</svg>
