<svg width="50" height="50" viewBox="0 0 50 50" fill="none" xmlns="http://www.w3.org/2000/svg">
<circle cx="25.2126" cy="24.904" r="24.404" fill="#613DF4"/>
<path fill-rule="evenodd" clip-rule="evenodd" d="M19.1713 13.7684C16.3572 13.7684 14.076 16.0496 14.076 18.8637V31.602C14.076 34.4161 16.3572 36.6974 19.1713 36.6974H31.9097C34.7237 36.6974 37.005 34.4161 37.005 31.602V18.8637C37.005 16.0496 34.7237 13.7684 31.9097 13.7684H19.1713ZM11.5283 18.8637C11.5283 14.6426 14.9502 11.2207 19.1713 11.2207H31.9097C36.1308 11.2207 39.5527 14.6426 39.5527 18.8637V31.602C39.5527 35.8232 36.1308 39.2451 31.9097 39.2451H19.1713C14.9502 39.2451 11.5283 35.8232 11.5283 31.602V18.8637Z" fill="white"/>
<path fill-rule="evenodd" clip-rule="evenodd" d="M26.1563 21.3976C25.3612 21.2797 24.5491 21.4155 23.8357 21.7857C23.1222 22.1559 22.5436 22.7417 22.1822 23.4597C21.8209 24.1776 21.6951 24.9913 21.8228 25.7849C21.9505 26.5785 22.3252 27.3116 22.8935 27.88C23.4619 28.4484 24.195 28.823 24.9886 28.9507C25.7822 29.0784 26.5959 28.9527 27.3138 28.5913C28.0318 28.2299 28.6176 27.6513 28.9878 26.9378C29.358 26.2244 29.4938 25.4123 29.3759 24.6172C29.2556 23.8062 28.8777 23.0553 28.298 22.4756C27.7182 21.8958 26.9673 21.5179 26.1563 21.3976ZM22.6623 19.5243C23.8514 18.9073 25.2048 18.681 26.53 18.8775C27.8817 19.0779 29.1332 19.7078 30.0994 20.6741C31.0657 21.6404 31.6956 22.8918 31.896 24.2435C32.0925 25.5687 31.8662 26.9221 31.2492 28.1112C30.6322 29.3003 29.6559 30.2646 28.4593 30.8669C27.2626 31.4692 25.9065 31.6789 24.5839 31.4661C23.2612 31.2532 22.0393 30.6287 21.0921 29.6815C20.1448 28.7342 19.5203 27.5123 19.3075 26.1896C19.0946 24.867 19.3043 23.5109 19.9066 22.3143C20.5089 21.1176 21.4732 20.1414 22.6623 19.5243Z" fill="white"/>
<path fill-rule="evenodd" clip-rule="evenodd" d="M31.2734 18.2267C31.2734 17.5232 31.8438 16.9529 32.5473 16.9529H32.56C33.2635 16.9529 33.8338 17.5232 33.8338 18.2267C33.8338 18.9302 33.2635 19.5005 32.56 19.5005H32.5473C31.8438 19.5005 31.2734 18.9302 31.2734 18.2267Z" fill="white"/>
</svg>
