<svg width="50" height="50" viewBox="0 0 50 50" fill="none" xmlns="http://www.w3.org/2000/svg">
<circle cx="25.0203" cy="24.904" r="24.404" fill="#613DF4"/>
<path fill-rule="evenodd" clip-rule="evenodd" d="M29.8128 21.0838C28.0167 21.0838 26.2941 21.7973 25.024 23.0674C23.7539 24.3375 23.0404 26.0601 23.0404 27.8563V35.908H26.3514V27.8563C26.3514 26.9382 26.716 26.0578 27.3652 25.4087C28.0144 24.7595 28.8948 24.3948 29.8128 24.3948C30.7309 24.3948 31.6113 24.7595 32.2605 25.4087C32.9096 26.0578 33.2743 26.9382 33.2743 27.8563V35.908H36.5853V27.8563C36.5853 26.0601 35.8718 24.3375 34.6017 23.0674C33.3316 21.7973 31.609 21.0838 29.8128 21.0838ZM23.7469 21.7904C25.3557 20.1816 27.5377 19.2778 29.8128 19.2778C32.088 19.2778 34.2699 20.1816 35.8787 21.7904C37.4875 23.3992 38.3913 25.5811 38.3913 27.8563V36.811C38.3913 37.3097 37.987 37.714 37.4883 37.714H32.3713C31.8726 37.714 31.4683 37.3097 31.4683 36.811V27.8563C31.4683 27.4172 31.2939 26.9961 30.9834 26.6857C30.673 26.3752 30.2519 26.2008 29.8128 26.2008C29.3738 26.2008 28.9527 26.3752 28.6422 26.6857C28.3318 26.9961 28.1573 27.4172 28.1573 27.8563V36.811C28.1573 37.3097 27.7531 37.714 27.2543 37.714H22.1374C21.6387 37.714 21.2344 37.3097 21.2344 36.811V27.8563C21.2344 25.5811 22.1382 23.3992 23.7469 21.7904Z" fill="white"/>
<path fill-rule="evenodd" clip-rule="evenodd" d="M11 21.4599C11 20.9612 11.4043 20.5569 11.903 20.5569H17.02C17.5187 20.5569 17.923 20.9612 17.923 21.4599V36.8108C17.923 37.3095 17.5187 37.7138 17.02 37.7138H11.903C11.4043 37.7138 11 37.3095 11 36.8108V21.4599ZM12.806 22.3629V35.9078H16.117V22.3629H12.806Z" fill="white"/>
<path fill-rule="evenodd" clip-rule="evenodd" d="M14.4615 13.4083C13.5472 13.4083 12.806 14.1495 12.806 15.0638C12.806 15.9781 13.5472 16.7193 14.4615 16.7193C15.3758 16.7193 16.117 15.9781 16.117 15.0638C16.117 14.1495 15.3758 13.4083 14.4615 13.4083ZM11 15.0638C11 13.1521 12.5498 11.6023 14.4615 11.6023C16.3732 11.6023 17.923 13.1521 17.923 15.0638C17.923 16.9755 16.3732 18.5253 14.4615 18.5253C12.5498 18.5253 11 16.9755 11 15.0638Z" fill="white"/>
</svg>
