<svg width="109" height="25" viewBox="0 0 109 25" fill="none" xmlns="http://www.w3.org/2000/svg">
<path d="M30.4384 5.87206C29.9439 5.87206 29.4495 5.86179 28.9576 5.87977C28.3138 5.9029 27.6932 6.03653 27.1009 6.29094C25.9807 6.77406 24.997 8.00755 24.8193 8.23626V7.4936C24.8193 7.24433 24.8193 6.99506 24.8193 6.74579C24.8193 6.67127 24.8193 6.59674 24.8193 6.52222V6.43228C24.8193 6.41429 24.8193 6.39373 24.8193 6.37574V6.02625H21.178V6.06994C21.1754 12.1423 21.1729 18.2173 21.1729 24.2897V24.5724H24.8554V24.3128C24.8554 20.8924 24.8554 17.4721 24.8554 14.0517C24.8554 13.3784 24.9455 12.718 25.1695 12.0781C25.7747 10.3332 27.2426 9.27703 29.0581 9.30015C29.4933 9.30529 29.9259 9.30015 30.3611 9.30015C30.4255 9.30015 30.4873 9.29245 30.562 9.28988V5.88748C30.5156 5.88234 30.477 5.87463 30.4384 5.87463V5.87206Z" fill="#6C3BF8"/>
<path d="M83.3282 17.5928C82.2157 19.7489 80.0191 21.0877 77.5959 21.0877C74.0421 21.0877 71.1502 18.2019 71.1502 14.6556C71.1502 11.1093 74.0421 8.22339 77.5959 8.22339C80.0217 8.22339 82.2183 9.56225 83.3282 11.7183L83.3643 11.7877H87.1112L87.0571 11.6206C85.7309 7.50386 81.9299 4.73877 77.5959 4.73877C72.1159 4.73877 67.6582 9.18706 67.6582 14.6556C67.6582 20.1241 72.1159 24.5724 77.5959 24.5724C81.9299 24.5724 85.7309 21.8073 87.0571 17.6905L87.1112 17.5234H83.3643L83.3282 17.5928Z" fill="#6C3BF8"/>
<path d="M15.67 17.5928C14.5575 19.7489 12.3609 21.0877 9.93765 21.0877C6.38389 21.0877 3.49196 18.2019 3.49196 14.6556C3.49196 11.1093 6.38389 8.2234 9.93765 8.2234C12.3635 8.2234 14.5601 9.56225 15.67 11.7183L15.7061 11.7877H19.453L19.3989 11.6206C18.0727 7.50386 14.2717 4.73877 9.93765 4.73877C4.45765 4.7362 0 9.18707 0 14.653C0 20.1189 4.45765 24.5698 9.93765 24.5698C14.2717 24.5698 18.0727 21.8047 19.3989 17.6879L19.453 17.5209H15.7061L15.67 17.5903V17.5928Z" fill="#6C3BF8"/>
<path d="M48.4317 15.1926H50.5743C50.5794 15.0564 50.5846 14.9202 50.5846 14.7815C50.5846 9.37464 46.1939 4.99316 40.7757 4.99316C35.3575 4.99316 30.9668 9.37464 30.9668 14.7815C30.9668 20.1883 35.3575 24.5698 40.7757 24.5698C45.1458 24.5698 48.8463 21.7173 50.1133 17.7778H46.6214C45.5295 19.8928 43.3226 21.3421 40.7731 21.3421C37.2812 21.3421 34.4253 18.6233 34.2141 15.1926H48.4291H48.4317ZM40.7757 8.22338C43.5054 8.22338 45.8437 9.88346 46.8377 12.2451H34.7111C35.7051 9.88346 38.046 8.22338 40.7731 8.22338H40.7757Z" fill="#6C3BF8"/>
<path d="M104.341 4.66664C105.011 4.28375 105.17 3.30466 104.697 2.48233C104.223 1.66 103.296 1.3028 102.626 1.68569C101.957 2.06859 101.797 3.04768 102.271 3.87001C102.745 4.69234 103.672 5.04954 104.341 4.66664Z" fill="url(#paint0_linear_655_753)"/>
<path d="M107.284 1.23096C106.321 -0.693808 105.69 -0.0821996 106.226 1.16415C106.952 2.85249 107.199 5.02396 105.428 6.14181C104.56 6.68918 103.527 6.93331 102.603 7.37017C101.725 7.78648 100.908 8.3287 100.283 9.08165C99.4327 10.1044 99.0413 11.6026 98.9769 12.9081C98.9563 13.3269 99.1572 13.7612 99.5177 12.8669C100.308 10.9062 101.253 8.745 102.909 10.2637C103.102 10.4513 103.283 10.6518 103.45 10.8625C103.458 10.8728 103.465 10.8831 103.476 10.8959C103.543 10.9807 103.607 11.0681 103.669 11.1555C103.687 11.1786 103.702 11.2017 103.72 11.2274C103.772 11.3019 103.821 11.3816 103.87 11.4587C103.89 11.4895 103.908 11.5178 103.929 11.5512C103.937 11.5666 103.947 11.582 103.955 11.5975C104.506 12.5354 104.825 13.6276 104.825 14.7943C104.825 18.2892 101.977 21.1314 98.4747 21.1314C94.9725 21.1314 92.1243 18.2892 92.1243 14.7943C92.1243 11.6489 94.4343 9.03282 97.4498 8.54199C99.0696 6.62493 100.064 6.30628 101.418 5.47367C100.489 5.18072 99.5022 5.01882 98.4747 5.01882C93.072 5.01882 88.6787 9.40544 88.6787 14.7943C88.6787 20.1831 93.0746 24.5697 98.4747 24.5697C102.901 24.5697 106.651 21.6222 107.859 17.5928C107.864 17.5851 107.869 17.5774 107.872 17.5671C107.918 17.4386 110.727 8.11284 107.279 1.23096H107.284Z" fill="url(#paint1_linear_655_753)"/>
<path d="M66.8677 20.877H56.8914L66.636 8.73473L65.8248 8.73987V8.73473H66.636V6.05444H64.7947H51.3883V9.7318H60.9139L50.9093 22.4085H50.8887V24.5543H52.3411H53.9042L53.9274 24.5697L53.9377 24.5543H66.8677V20.877Z" fill="#6C3BF8"/>
<defs>
<linearGradient id="paint0_linear_655_753" x1="86.5389" y1="10.4949" x2="104.147" y2="2.85625" gradientUnits="userSpaceOnUse">
<stop offset="0.01" stop-color="#6C3BF8"/>
<stop offset="0.17" stop-color="#6E3CF4"/>
<stop offset="0.29" stop-color="#753FEB"/>
<stop offset="0.41" stop-color="#8044DA"/>
<stop offset="0.51" stop-color="#904CC2"/>
<stop offset="0.61" stop-color="#A555A4"/>
<stop offset="0.71" stop-color="#BF617F"/>
<stop offset="0.8" stop-color="#DD6F54"/>
<stop offset="0.89" stop-color="#FF7F24"/>
</linearGradient>
<linearGradient id="paint1_linear_655_753" x1="89.8478" y1="18.1221" x2="107.456" y2="10.4835" gradientUnits="userSpaceOnUse">
<stop offset="0.01" stop-color="#6C3BF8"/>
<stop offset="0.17" stop-color="#6E3CF4"/>
<stop offset="0.29" stop-color="#753FEB"/>
<stop offset="0.41" stop-color="#8044DA"/>
<stop offset="0.51" stop-color="#904CC2"/>
<stop offset="0.61" stop-color="#A555A4"/>
<stop offset="0.71" stop-color="#BF617F"/>
<stop offset="0.8" stop-color="#DD6F54"/>
<stop offset="0.89" stop-color="#FF7F24"/>
</linearGradient>
</defs>
</svg>
