<?xml version="1.0" encoding="utf-8"?>
<!-- Generator: Adobe Illustrator 26.3.1, SVG Export Plug-In . SVG Version: 6.00 Build 0)  -->
<svg version="1.1" id="Capa_1" xmlns="http://www.w3.org/2000/svg" xmlns:xlink="http://www.w3.org/1999/xlink" x="0px" y="0px"
	 viewBox="0 0 494.3 298.1" style="enable-background:new 0 0 494.3 298.1;" xml:space="preserve">
<style type="text/css">
	.st0{fill:#FFFFFF;}
</style>
<g>
	<g>
		<path class="st0" d="M286.9,58.9c-0.4,0.9-0.9,2.2-1.5,3.4c-16.3,31.5-29.5,64-36.5,98.8c-0.3,1.7-0.5,3.7-2.8,4
			c-2.8,0.3-3.1-2.1-3.5-3.9c-7.7-34.7-20.5-67.4-36.8-98.8c-2.3-4.3-1.2-6.7,3.3-7.9c24.3-6.2,48.7-6.7,73.1-0.3
			C285.5,55.1,286.9,56.5,286.9,58.9z"/>
		<path class="st0" d="M364,111.1c-0.6,3.7-3.5,4.5-5.9,5.7c-24.9,12.1-48.6,26.1-70.6,42.9c-4.3,3.2-8.4,6.6-12.6,9.9
			c-1.5,1.2-2.9,3.1-5.1,1.5c-2.2-1.7-0.8-3.6,0-5.3c7.7-16.7,14.1-33.8,19.4-51.3c4.6-15.3,8.3-30.8,11-46.5
			c0.8-4.5,2.7-6.7,7.2-4.6c22.3,10.3,40.7,25.4,55.3,45.1C363.3,109.1,363.6,110.3,364,111.1z"/>
		<path class="st0" d="M218.4,167.9c0.1,1.5-0.1,2.4-1,3.1c-1.5,1-2.6,0.3-3.7-0.6c-2.6-2.1-5.1-4.3-7.7-6.5
			c-22.1-18.4-45.9-34.1-71.2-47.6c-6.7-3.7-7-4.7-2.4-10.6c14-18.1,31.3-32.1,52-41.9c5.7-2.7,7.7-1.9,8.6,4.1
			c5.1,33.6,12.1,66.6,24.7,98.3C218.1,166.8,218.3,167.6,218.4,167.9z"/>
		<path class="st0" d="M375.6,52.6c0,9.8-6.3,16.5-15.5,16.6c-9.1,0.1-16.7-7.5-16.7-16.5c0-9.1,7.2-15.9,16.5-15.7
			C369.4,37.3,375.6,43.4,375.6,52.6z"/>
		<path class="st0" d="M118.7,51.5c0.1-9.3,6.5-15.9,15.5-15.9c9.1,0,16.5,7.2,16.4,15.9s-7.7,16.4-16.1,16.5
			C125.6,68,118.6,60.7,118.7,51.5z"/>
		<path class="st0" d="M261.2,17.8c0.1,8.7-6.7,15.8-15.5,16.1c-8.9,0.3-16-6.7-16.1-16s6.5-16.2,15.7-16.3
			C254.2,1.4,261.2,8.6,261.2,17.8z"/>
	</g>
	<g>
		<path class="st0" d="M491.9,250.2c0,26.5-19.4,46.4-45.1,46.4c-25.8,0-45.6-20.4-45.4-46.9c0.1-26.3,19.7-46,45.6-45.9
			C473,203.8,491.9,223.4,491.9,250.2z M472.7,250c-0.4-12.2-5.7-22-14.9-26.4c-8.9-4.2-17.6-3.5-25.6,2.1
			c-11,7.8-14.7,24.9-8.5,38.3c4.9,10.6,14.2,15.9,26.1,15.1c9.2-0.7,17.9-8.1,20.9-18.2C471.7,257.4,472,253.6,472.7,250z"/>
		<path class="st0" d="M145.3,256.5c9.9,7.8,12.3,19.1,16.4,29.3c1.9,4.6-0.7,8.4-5.4,10.3c-4.7,2-9.7,0.3-11.9-4.4
			c-2.8-6-5.2-12.2-7.8-18.3c-4-9.4-9.1-12.4-19.2-11.8c-4.1,0.2-6,2.1-6,6.2c0.1,6.3,0.1,12.5,0,18.8s-3.9,10.2-9.7,10
			c-5.7-0.1-9-3.7-9-10c-0.1-22.1-0.1-44.3,0-66.4c0-8.2,4.7-13.6,12.7-13.9c9.2-0.4,18.4-0.5,27.6,0.1c12.2,0.8,21.6,8.5,24.7,19.4
			c3.2,11.3-0.3,21.2-10.3,28.9C146.9,255.1,146.3,255.6,145.3,256.5z M122.8,245.2c2.1,0,4.3,0.1,6.4,0c6.6-0.3,10.7-4.3,10.8-10.6
			s-3.8-10.6-10.3-11.1c-4.5-0.3-9-0.5-13.4,0.1c-1.7,0.2-3.7,2.6-4.6,4.4c-0.8,1.6-0.2,3.8-0.2,5.8
			C111.5,246.6,110.7,245.2,122.8,245.2z"/>
		<path class="st0" d="M280.3,223.5c-11.2,0-20.6,0.1-30,0c-6.4-0.1-9.6-3.5-9.2-9.5c0.3-4.9,2.9-7.8,7.7-7.8
			c15.5-0.1,31-0.4,46.5,0.2c3.4,0.1,7.7,3.1,9.8,6.1c2.8,4.1,1.3,9-1.8,13c-10.2,12.9-20.3,25.9-30.5,38.8
			c-2.7,3.5-5.2,7.1-8.8,11.9c3.7,0.3,5.7,0.6,7.7,0.6c9.8,0,19.6-0.1,29.4,0.1c5.9,0.1,9.2,3.1,9.5,8.3c0.3,5.6-2.7,9.1-8.3,9.1
			c-17.4,0.1-34.9,0-52.3,0c-4.9,0-8.3-2.5-10.2-6.6c-2.1-4.5-0.8-8.7,2.2-12.6c11.4-14.7,22.8-29.4,34.1-44.2
			C277.3,229,278.2,227,280.3,223.5z"/>
		<path class="st0" d="M173,249.7c0-9.8-0.1-19.6,0-29.4c0.1-9.4,4.8-14,14.2-14.1c10.6-0.1,21.2-0.1,31.8,0c6.8,0,9.5,2.5,9.4,8.4
			c0,5.6-3.2,8.7-9.4,8.9c-6.1,0.1-12.2,0-18.2,0c-7.9,0-8.1,0.3-8.1,8.4c0,0.6,0,1.2,0,1.8c0,6.8,0.9,7.6,7.9,7.7
			c5.1,0.1,10.2,0,15.3,0c6.1,0.1,9.4,2.9,9.5,8c0.1,4.8-3.5,8.7-8.9,9.1c-5.7,0.3-11.4,0.3-17,0.1c-5.1-0.2-7.3,1.8-6.7,6.9
			c0.2,1.7,0.2,3.5,0,5.3c-0.4,4.6,1.8,6.3,6.3,6.2c7.2-0.2,14.5-0.1,21.8,0c6.6,0.1,10.1,3.3,10,8.9c0,5.6-3.4,8.5-10.2,8.5
			c-11,0-22,0-32.9,0c-9.4,0-14.4-5-14.5-14.6C172.9,269.7,173,259.7,173,249.7z"/>
		<path class="st0" d="M362.6,296.6c-20.7-0.1-37.4-11.3-43.8-29.4c-7.1-19.8-2.2-41.7,12.7-53c16.6-12.6,35.1-13,54.1-5.9
			c5.3,2,6.9,6.7,5,11.5c-1.8,4.7-6.3,6.7-11.5,5.3c-3.4-0.9-6.7-2.1-10.2-2.8c-21.6-3.9-36.9,11.6-33.1,33.3
			c3,17.4,17.3,26.9,34.5,22.8c3.6-0.9,7.1-2.2,10.4-3.8c7.5-3.8,12.2-3.5,14.8,1.4c2.8,5.3,0.5,11.7-6.8,14.6
			C380.4,293.8,371.9,296.6,362.6,296.6z"/>
		<path class="st0" d="M52.3,296.6c-23.2-0.1-39.7-11-46.4-28.5c-7.1-18.5-2.9-39.9,10.3-52.3c13.2-12.3,40.4-15.9,56.4-7.6
			c4.6,2.4,6.6,6,4.8,11.2c-1.7,4.9-5.9,6.7-11.3,5.8c-7.8-1.3-15.9-3.7-23.5-2.8C29,224,20.5,237.8,22.1,252.8
			c1.6,15.6,11.7,26.5,25.8,26c7-0.3,14.1-2.6,20.7-5.1c6-2.3,10.5-2.6,13.2,1.4c3,4.3,1.8,10.4-3.4,13.8
			C69.6,294.8,59.6,296.4,52.3,296.6z"/>
	</g>
</g>
</svg>
