<?xml version="1.0" encoding="utf-8"?>
<!-- Generator: Adobe Illustrator 26.3.1, SVG Export Plug-In . SVG Version: 6.00 Build 0)  -->
<svg version="1.1" id="Capa_1" xmlns="http://www.w3.org/2000/svg" xmlns:xlink="http://www.w3.org/1999/xlink" x="0px" y="0px"
	 viewBox="0 0 494.3 116.4" style="enable-background:new 0 0 494.3 116.4;" xml:space="preserve">
<style type="text/css">
	.st0{fill:#FFFFFF;}
</style>
<g>
	<g>
		<path class="st0" d="M108.8,40.2c-0.3,0.6-0.6,1.4-1,2.2c-10.5,20.4-19.1,41.4-23.6,63.9c-0.2,1.1-0.3,2.4-1.8,2.6
			c-1.8,0.2-2-1.4-2.3-2.5c-5-22.4-13.3-43.6-23.8-63.9c-1.5-2.8-0.8-4.3,2.1-5.1c15.7-4,31.5-4.3,47.3-0.2
			C107.9,37.8,108.8,38.7,108.8,40.2z"/>
		<path class="st0" d="M158.7,74c-0.4,2.4-2.3,2.9-3.8,3.7c-16.1,7.8-31.4,16.9-45.7,27.7c-2.8,2.1-5.4,4.3-8.1,6.4
			c-1,0.8-1.9,2-3.3,1c-1.4-1.1-0.5-2.3,0-3.4c5-10.8,9.1-21.9,12.5-33.2c3-9.9,5.4-19.9,7.1-30.1c0.5-2.9,1.7-4.3,4.7-3
			c14.4,6.7,26.3,16.4,35.8,29.2C158.2,72.7,158.4,73.5,158.7,74z"/>
		<path class="st0" d="M64.5,110.7c0.1,1-0.1,1.6-0.6,2c-1,0.6-1.7,0.2-2.4-0.4c-1.7-1.4-3.3-2.8-5-4.2
			C42.2,96.3,26.8,86.1,10.4,77.4c-4.3-2.4-4.5-3-1.6-6.9c9.1-11.7,20.2-20.8,33.6-27.1c3.7-1.7,5-1.2,5.6,2.7
			c3.3,21.7,7.8,43.1,16,63.6C64.3,110,64.4,110.6,64.5,110.7z"/>
		<path class="st0" d="M166.2,36.2c0,6.3-4.1,10.7-10,10.7c-5.9,0.1-10.8-4.9-10.8-10.7c0-5.9,4.7-10.3,10.7-10.2
			C162.2,26.3,166.2,30.2,166.2,36.2z"/>
		<path class="st0" d="M0,35.5c0.1-6,4.2-10.3,10-10.3c5.9,0,10.7,4.7,10.6,10.3c-0.1,5.6-5,10.6-10.4,10.7
			C4.5,46.1-0.1,41.4,0,35.5z"/>
		<path class="st0" d="M92.2,13.7c0.1,5.6-4.3,10.2-10,10.4c-5.8,0.2-10.3-4.3-10.4-10.3c-0.1-6,4.2-10.5,10.2-10.5
			C87.6,3.1,92.2,7.7,92.2,13.7z"/>
	</g>
	<g>
		<path class="st0" d="M494.3,58.1c0,17.1-12.5,30-29.2,30c-16.7,0-29.5-13.2-29.4-30.3c0.1-17,12.7-29.8,29.5-29.7
			C482.1,28.1,494.3,40.8,494.3,58.1z M481.9,58c-0.3-7.9-3.7-14.2-9.6-17.1c-5.8-2.7-11.4-2.3-16.6,1.4c-7.1,5-9.5,16.1-5.5,24.8
			c3.2,6.9,9.2,10.3,16.9,9.8c6-0.5,11.6-5.2,13.5-11.8C481.2,62.8,481.4,60.3,481.9,58z"/>
		<path class="st0" d="M270.1,62.2c6.4,5,8,12.4,10.6,19c1.2,3-0.5,5.4-3.5,6.7c-3,1.3-6.3,0.2-7.7-2.8c-1.8-3.9-3.4-7.9-5-11.8
			c-2.6-6.1-5.9-8-12.4-7.6c-2.7,0.1-3.9,1.4-3.9,4c0.1,4.1,0.1,8.1,0,12.2c-0.1,4.1-2.5,6.6-6.3,6.5c-3.7-0.1-5.8-2.4-5.8-6.5
			c-0.1-14.3-0.1-28.7,0-42.9c0-5.3,3-8.8,8.2-9c6-0.3,11.9-0.3,17.9,0.1c7.9,0.5,14,5.5,16,12.5c2.1,7.3-0.2,13.7-6.7,18.7
			C271.2,61.3,270.8,61.6,270.1,62.2z M255.6,54.9c1.4,0,2.8,0.1,4.1,0c4.3-0.2,6.9-2.8,7-6.9c0.1-4.1-2.5-6.9-6.7-7.2
			c-2.9-0.2-5.8-0.3-8.7,0.1c-1.1,0.1-2.4,1.7-3,2.8c-0.5,1-0.1,2.5-0.1,3.8C248.3,55.8,247.7,54.9,255.6,54.9z"/>
		<path class="st0" d="M357.4,40.9c-7.2,0-13.3,0.1-19.4,0c-4.1-0.1-6.2-2.3-6-6.1c0.2-3.2,1.9-5,5-5c10-0.1,20.1-0.3,30.1,0.1
			c2.2,0.1,5,2,6.3,3.9c1.8,2.7,0.8,5.8-1.2,8.4c-6.6,8.3-13.1,16.8-19.7,25.1c-1.7,2.3-3.4,4.6-5.7,7.7c2.4,0.2,3.7,0.4,5,0.4
			c6.3,0,12.7-0.1,19,0.1c3.8,0.1,6,2,6.1,5.4c0.2,3.6-1.7,5.9-5.4,5.9c-11.3,0.1-22.6,0-33.8,0c-3.2,0-5.4-1.6-6.6-4.3
			c-1.4-2.9-0.5-5.6,1.4-8.1c7.4-9.5,14.7-19,22.1-28.6C355.5,44.4,356.1,43.1,357.4,40.9z"/>
		<path class="st0" d="M288,57.8c0-6.3-0.1-12.7,0-19c0.1-6.1,3.1-9.1,9.2-9.1c6.9-0.1,13.7-0.1,20.6,0c4.4,0,6.1,1.6,6.1,5.4
			c0,3.6-2.1,5.6-6.1,5.8c-3.9,0.1-7.9,0-11.8,0c-5.1,0-5.2,0.2-5.2,5.4c0,0.4,0,0.8,0,1.2c0,4.4,0.6,4.9,5.1,5c3.3,0.1,6.6,0,9.9,0
			c3.9,0.1,6.1,1.9,6.1,5.2c0.1,3.1-2.3,5.6-5.8,5.9c-3.7,0.2-7.4,0.2-11,0.1c-3.3-0.1-4.7,1.2-4.3,4.5c0.1,1.1,0.1,2.3,0,3.4
			c-0.3,3,1.2,4.1,4.1,4c4.7-0.1,9.4-0.1,14.1,0c4.3,0.1,6.5,2.1,6.5,5.8c0,3.6-2.2,5.5-6.6,5.5c-7.1,0-14.2,0-21.3,0
			c-6.1,0-9.3-3.2-9.4-9.4C288,70.7,288,64.3,288,57.8z"/>
		<path class="st0" d="M410.7,88.1c-13.4-0.1-24.2-7.3-28.3-19c-4.6-12.8-1.4-27,8.2-34.3c10.7-8.1,22.7-8.4,35-3.8
			c3.4,1.3,4.5,4.3,3.2,7.4c-1.2,3-4.1,4.3-7.4,3.4c-2.2-0.6-4.3-1.4-6.6-1.8c-14-2.5-23.9,7.5-21.4,21.5
			c1.9,11.3,11.2,17.4,22.3,14.7c2.3-0.6,4.6-1.4,6.7-2.5c4.9-2.5,7.9-2.3,9.6,0.9c1.8,3.4,0.3,7.6-4.4,9.4
			C422.2,86.3,416.7,88.1,410.7,88.1z"/>
		<path class="st0" d="M210,88.1c-15-0.1-25.7-7.1-30-18.4c-4.6-12-1.9-25.8,6.7-33.8c8.5-8,26.1-10.3,36.5-4.9
			c3,1.6,4.3,3.9,3.1,7.2c-1.1,3.2-3.8,4.3-7.3,3.8c-5-0.8-10.3-2.4-15.2-1.8c-8.8,1-14.3,10-13.3,19.7c1,10.1,7.6,17.1,16.7,16.8
			c4.5-0.2,9.1-1.7,13.4-3.3c3.9-1.5,6.8-1.7,8.5,0.9c1.9,2.8,1.2,6.7-2.2,8.9C221.2,87,214.7,88,210,88.1z"/>
	</g>
</g>
</svg>
