<svg width="150" height="34" viewBox="0 0 150 34" fill="none" xmlns="http://www.w3.org/2000/svg">
<path d="M41.8884 7.4923C41.208 7.4923 40.5276 7.47816 39.8507 7.50291C38.9648 7.53473 38.1107 7.71859 37.2956 8.06864C35.754 8.73336 34.4003 10.4305 34.1558 10.7452V9.72338C34.1558 9.38041 34.1558 9.03744 34.1558 8.69447C34.1558 8.59193 34.1558 8.48939 34.1558 8.38685V8.2631C34.1558 8.23835 34.1558 8.21007 34.1558 8.18532V7.70445H29.1448V7.76456C29.1412 16.1196 29.1377 24.4782 29.1377 32.8332V33.2221H34.2054V32.865C34.2054 28.1589 34.2054 23.4528 34.2054 18.7467C34.2054 17.8203 34.3294 16.9116 34.6377 16.0312C35.4705 13.6304 37.4905 12.1772 39.9889 12.209C40.5878 12.2161 41.1832 12.209 41.7821 12.209C41.8707 12.209 41.9558 12.1984 42.0585 12.1949V7.51352C41.9947 7.50645 41.9416 7.49584 41.8884 7.49584V7.4923Z" fill="black"/>
<path d="M91.9905 28.0104H77.9817L91.4872 10.7205V7.59839H88.0072H77.6273H70.7133V12.704L83.8609 12.7005L70.0293 30.1283V33.1161H73.5979H80.7848H91.9905V28.0104Z" fill="black"/>
<path d="M114.672 24.3969C113.141 27.3634 110.118 29.2055 106.783 29.2055C101.893 29.2055 97.9129 25.2349 97.9129 20.3555C97.9129 15.4761 101.893 11.5054 106.783 11.5054C110.121 11.5054 113.144 13.3476 114.672 16.3141L114.721 16.4096H119.878L119.803 16.1797C117.978 10.5154 112.747 6.71094 106.783 6.71094C99.2418 6.71094 93.1074 12.8314 93.1074 20.3555C93.1074 27.8796 99.2418 34 106.783 34C112.747 34 117.978 30.1955 119.803 24.5312L119.878 24.3014H114.721L114.672 24.3969Z" fill="black"/>
<path d="M21.5642 24.3969C20.0333 27.3634 17.0104 29.2055 13.6757 29.2055C8.78517 29.2055 4.80544 25.2349 4.80544 20.3555C4.80544 15.4761 8.78517 11.5054 13.6757 11.5054C17.014 11.5054 20.0369 13.3476 21.5642 16.3141L21.6139 16.4096H26.7701L26.6957 16.1797C24.8707 10.5154 19.6399 6.71094 13.6757 6.71094C6.13438 6.71094 0 12.8314 0 20.3555C0 27.8796 6.13438 34 13.6757 34C19.6399 34 24.8707 30.1955 26.6957 24.5312L26.7701 24.3014H21.6139L21.5642 24.3969Z" fill="black"/>
<path d="M66.6486 20.9212H69.597C69.6041 20.7338 69.6112 20.5464 69.6112 20.3555C69.6112 12.9162 63.569 6.8877 56.1127 6.8877C48.6565 6.8877 42.6143 12.9162 42.6143 20.3555C42.6143 27.7947 48.6565 33.8232 56.1127 33.8232C62.1266 33.8232 67.2191 29.8985 68.9627 24.4782H64.1572C62.6547 27.3881 59.6176 29.3823 56.1092 29.3823C51.3037 29.3823 47.3736 25.6414 47.083 20.9212H66.645H66.6486ZM56.1127 11.3286C59.8692 11.3286 63.087 13.6127 64.4549 16.8621H47.767C49.1349 13.6127 52.3563 11.3286 56.1092 11.3286H56.1127Z" fill="black"/>
<path d="M143.589 6.4209C144.51 5.89407 144.73 4.54694 144.078 3.41549C143.426 2.28405 142.15 1.79257 141.229 2.3194C140.307 2.84623 140.087 4.19336 140.739 5.32481C141.392 6.45626 142.667 6.94773 143.589 6.4209Z" fill="black"/>
<path d="M147.639 1.69353C146.314 -0.954765 145.446 -0.113251 146.183 1.6016C147.182 3.9246 147.522 6.91233 145.084 8.45039C143.89 9.20351 142.469 9.53941 141.197 10.1405C139.988 10.7133 138.865 11.4593 138.004 12.4953C136.834 13.9026 136.296 15.9639 136.207 17.7601C136.179 18.3364 136.455 18.934 136.951 17.7035C138.039 15.0057 139.34 12.0321 141.618 14.1218C141.884 14.3799 142.132 14.6557 142.363 14.9456C142.373 14.9598 142.384 14.9739 142.398 14.988C142.49 15.1047 142.579 15.2249 142.664 15.3452C142.689 15.377 142.71 15.4088 142.735 15.4442C142.806 15.5467 142.873 15.6563 142.94 15.7624C142.969 15.8048 142.993 15.8437 143.022 15.8897C143.032 15.9109 143.047 15.9321 143.057 15.9533C143.816 17.2439 144.255 18.7466 144.255 20.3518C144.255 25.1605 140.336 29.071 135.516 29.071C130.696 29.071 126.777 25.1605 126.777 20.3518C126.777 16.024 129.956 12.4246 134.105 11.7493C136.335 9.11158 137.702 8.67315 139.567 7.52756C138.287 7.12448 136.93 6.90172 135.516 6.90172C128.081 6.90172 122.035 12.9373 122.035 20.3518C122.035 27.7663 128.084 33.8019 135.516 33.8019C141.608 33.8019 146.768 29.7464 148.43 24.2023C148.437 24.1917 148.444 24.1811 148.447 24.1669C148.511 23.9901 152.377 11.1588 147.632 1.68999L147.639 1.69353Z" fill="black"/>
</svg>
